<svg width="270" height="286" viewBox="0 0 270 286" fill="none" xmlns="http://www.w3.org/2000/svg">
<path fill-rule="evenodd" clip-rule="evenodd" d="M33.0615 72.6276C34.1889 69.8099 36.1828 66.2682 39.5153 66.127C42.0929 58.3223 48.502 50.3739 57.4167 50.5851C83.583 24.085 116.525 25.3342 150.966 30.944C169.137 34.2815 187.587 40.8168 201.139 53.7135C217.37 68.8964 223.691 95.389 210.98 114.588C221.965 120.418 222.179 134.253 217.481 144.236C223.128 148.104 223.471 157.49 217.112 160.44C217.45 161.812 217.211 163.229 216.566 164.448C219.719 167.047 223.823 168.967 227.215 170.617C228.715 171.347 229.58 172.538 229.939 173.881C241.078 181.118 268.853 198.804 268.522 212.881C268.686 220.225 263.185 225.058 256.501 226.982C260.478 234.856 263.497 244.053 259.69 252.547C258.638 255.113 250.753 262.656 250.356 262.795C249.663 263.384 238.352 258.241 232.854 255.618C231.788 262.485 224.373 266.083 217.982 263.73C211.922 261.921 208.196 256.84 204.374 252.218C199.301 263.178 184.373 263.305 174.726 258.579C166.061 254.615 159.475 247.35 155.806 238.595C136.323 248.041 113.528 250.794 92.3606 247.021C91.0023 249.402 87.9952 251.001 85.3165 250.08C74.0607 246.729 61.6157 246.541 52.0746 238.863C32.1869 224.726 30.5123 198.664 31.8991 176.447C33.129 154.296 32.0524 131.96 36.1183 110.049C34.3539 103.597 31.4189 97.894 28.7032 91.8333C25.7529 85.478 25.8149 76.0305 33.0615 72.6276Z" fill="#1F242B"/>
<path fill-rule="evenodd" clip-rule="evenodd" d="M217.963 166.652C216.791 166.36 216.162 167.92 217.157 168.547C223.473 172.526 229.999 176.079 236.101 180.409C241.904 184.524 247.265 189.213 252.264 194.253L252.818 194.815C257.337 199.419 262.342 205.277 262.393 212.069C262.432 217.348 258.322 223.111 252.587 222.417C250.427 222.156 248.441 224.87 249.195 226.827L249.988 228.89C253.179 237.238 256.425 246.696 253.905 255.478L253.812 255.791C253.202 257.802 252.56 259.579 250.203 259.539C248.016 259.501 245.74 258.77 243.692 258.073C239.443 256.626 235.592 254.212 232.323 251.177C229.432 248.492 225.739 251.22 226.128 254.632L226.142 254.741C226.674 258.569 220.515 260.347 217.715 259.799C212.187 258.717 208.245 253.231 205.106 249.049C203.597 247.04 199.931 246.248 198.605 249.049C195.978 254.596 190.562 258.743 184.227 258.917C180.936 259.007 177.779 258.079 174.991 256.359C173.854 255.656 172.836 254.821 171.903 253.874L171.672 253.635C170.291 252.186 169.338 251.415 167.575 250.469C165.837 249.536 163.589 250.692 163.6 252.727C163.614 255.362 164.394 257.114 166.229 259.025C167.747 260.608 169.551 261.998 171.448 263.108C175.259 265.338 179.79 266.593 184.227 266.448C191.221 266.219 197.896 262.766 202.224 257.397C206.642 262.629 212.123 267.436 219.245 267.307C224.577 267.21 229.546 264.462 231.926 260.203C235.287 262.498 238.976 264.292 242.922 265.464L243.274 265.566C248.86 267.176 255.288 267.816 258.883 262.325C262.259 257.169 262.511 250.029 261.737 244.135C261.046 238.871 259.411 233.871 257.532 228.94C262.879 227.359 267.028 222.386 268.454 217.025C270.61 208.918 266.427 201.056 261.255 195.033C255.638 188.489 248.567 182.955 241.444 178.111C234.339 173.28 226.38 168.741 217.963 166.652ZM35.2897 103.238C35.2765 103.013 34.9039 102.934 34.8694 103.181C32.4156 120.815 30.9948 138.414 29.8187 156.169C29.2222 165.164 28.5451 174.15 27.804 183.134C27.0928 191.749 25.9091 200.594 26.1766 209.244C26.5954 222.789 33.2369 233.802 44.1272 241.728C54.5622 249.324 67.5073 253.079 80.2082 254.666C87.5843 255.587 95.0629 255.631 102.447 254.766C106.282 254.316 110.113 253.718 113.869 252.819L115.493 252.417C118.451 251.668 121.754 250.653 122.176 247.183C122.381 245.502 121.479 244.262 120.023 243.419C118.125 242.319 115.949 242.966 113.993 243.468C110.697 244.312 107.366 245.037 103.998 245.538C96.7629 246.616 89.3254 246.68 82.0534 245.934C69.821 244.678 56.9175 240.749 47.4861 232.634C43.3871 229.108 39.8232 224.811 37.9486 219.707C35.5384 213.144 35.8953 205.985 35.976 199.113C36.1633 183.134 35.9983 167.156 36.2227 151.175C36.4481 135.146 36.2516 119.243 35.2897 103.238ZM158.301 28.5646C144.007 24.9139 129.501 23.9653 114.819 25.0642C100.973 26.0998 85.2002 29.1679 73.8916 37.6019C73.3429 38.0111 73.6713 38.7858 74.3505 38.6787C81.9109 37.4853 89.2804 35.3146 96.8082 33.8783C104.049 32.4969 111.42 31.4598 118.792 31.2195C143.727 30.4056 171.473 36.0013 191.579 51.3969C201.007 58.6154 208.202 68.3218 211.065 79.8707C214.002 91.7161 212.413 104.526 206.516 115.242C205.667 116.784 206.017 119.225 207.789 120.047C213.164 122.539 216.993 128.061 216.91 134.02C216.87 136.91 215.864 139.681 214.247 142.07C212.537 144.596 209.935 146.364 208.023 148.723C207.27 149.652 207.241 150.931 207.837 151.787C206.719 152.272 205.513 152.532 204.413 153.106C203.48 153.592 203.453 155.109 204.413 155.588C206.839 156.798 209.462 155.514 211.1 153.563C211.392 153.214 211.645 152.852 211.876 152.482C213.837 152.07 215.594 151.095 217.129 149.762C220.053 151.496 220.453 155.356 217.941 158.305C216.659 159.811 214.836 160.74 212.995 161.408L212.773 161.487C210.981 162.118 209.339 162.47 208.175 163.89C207.407 162.304 206.525 160.81 205.543 159.448C201.969 154.498 196.477 150.106 189.96 150.663C184.855 151.099 180.432 154.719 179.386 159.713C179.309 160.082 179.871 160.371 180.039 159.985C182.488 154.329 190.238 154.122 194.854 157.069C200.283 160.536 203.25 167.068 204.44 173.153C205.612 179.146 204.934 186.436 200.405 190.994C198.552 192.86 196.03 194.15 193.399 194.49C192.113 194.656 190.978 194.492 189.748 194.247L188.933 194.078C188.367 193.963 187.805 193.869 187.212 193.921L186.328 194.039V194.039L185.826 194.271C185.39 194.465 185.43 194.412 185.944 194.112C184.442 193.99 183.666 195.089 183.584 196.294C183.536 196.324 183.49 196.357 183.451 196.403C177.753 203.31 173.522 211.248 167.475 217.928L165.705 219.885C161.154 224.898 155.958 230.334 149.776 232.935L149.04 233.236C147.242 233.988 145.436 235.018 145.206 237.165C145.001 239.089 146.532 240.536 148.297 240.985C152.316 242.006 156.898 238.468 159.841 236.147C166.171 231.158 171.491 224.798 175.884 218.106L176.319 217.439C179.93 211.853 183.324 205.483 184.379 198.853L184.569 199.159C184.584 199.18 184.595 199.197 184.602 199.207C184.817 199.496 185.054 199.74 185.329 199.975C186.069 200.607 186.97 200.976 187.907 201.226C189.664 201.696 191.592 201.788 193.399 201.605C197.07 201.234 200.5 199.85 203.402 197.597C212.236 190.736 213.28 177.968 209.706 167.609C212.638 168.303 215.978 166.349 218.267 164.674C220.893 162.753 223.058 159.979 223.575 156.717C224.089 153.479 222.004 149.192 218.913 147.943C222.121 144.129 223.988 138.716 224.181 134.382C224.516 126.843 220.472 119.718 214.263 115.605C220.102 103.212 221.227 88.8351 217.295 75.677C209.494 49.5665 183.36 34.9652 158.301 28.5646ZM180.544 226.95L180.471 226.721C179.849 224.702 179.046 220.685 176 222.214C173.09 223.675 174.948 227.997 175.966 230.102C177.183 232.62 179.286 234.639 182.111 235.18C184.408 235.62 186.931 235.054 188.538 233.297C189.007 232.784 189.271 232.222 189.549 231.602C189.657 231.361 189.706 231.195 189.726 231.088C189.752 231.206 189.827 231.382 190.019 231.589C191.302 232.976 192.513 234.591 193.443 236.233C193.664 236.621 194.358 236.349 194.182 235.924C193.099 233.299 193.281 229.24 190.865 227.341C188.736 225.667 186.735 226.984 185.609 228.934L185.551 229.035C183.905 231.995 181.282 229.184 180.544 226.95ZM203.707 217.462L203.484 217.157C201.207 214.075 197.368 210.368 193.526 213.234C192.304 214.145 192.259 215.667 193.526 216.571L194.005 216.91C195.684 218.088 197.355 219.201 198.588 220.891C199.927 222.729 201.13 224.674 202.931 226.116C206.117 228.664 211.264 229.167 214.028 225.731L214.3 225.39C214.531 225.095 214.797 224.74 215.012 224.386L215.18 224.616C215.196 224.639 215.212 224.661 215.226 224.682L215.264 224.74C216.4 226.538 217.835 228.018 219.623 229.187C223.02 231.406 226.848 231.715 230.691 230.54C231.067 230.424 230.966 229.925 230.602 229.892C226.048 229.471 221.611 226.267 219.759 222.141L219.55 221.678C218.8 220.037 217.96 218.477 216.109 217.833C214.306 217.205 212.414 217.868 211.178 219.218C210.144 220.347 209.878 222.591 208.014 222.096C205.972 221.554 204.823 219.022 203.707 217.462ZM216.749 190.055C215.741 189.296 214.161 190.111 213.883 191.211C212.625 196.19 217.851 202.059 222.874 202.213C224.167 202.252 225.41 201.942 226.555 201.35C227.444 200.89 228.495 199.716 229.47 199.521C230.729 199.271 231.845 200.932 232.732 201.784C233.832 202.842 234.92 203.825 236.153 204.727C236.645 205.087 237.409 204.482 237.201 203.928L236.784 202.828C235.275 198.911 232.676 193.193 227.812 194.818C225.428 195.614 223.635 198.3 221.125 196.173C219.115 194.471 218.928 191.695 216.749 190.055ZM195.288 170.005C190.754 164.85 180.094 167.573 178.073 173.844C177.626 175.229 178.092 177.03 179.185 178.01C180.624 179.301 182.676 179.692 184.424 178.68C185.927 177.808 186.544 176.383 187.65 175.16C189.27 173.367 191.475 172.372 193.746 171.66C194.314 171.955 194.843 172.344 195.317 172.812C195.56 173.052 196.018 172.723 195.803 172.441C195.51 172.057 195.153 171.695 194.746 171.362L194.942 171.305V171.305C195.54 171.14 195.669 170.44 195.288 170.005ZM165.818 113.087C164.802 113.089 163.618 114.034 163.748 115.137L163.787 115.444C164.079 117.544 164.761 118.734 166.884 119.71C168.686 120.537 170.578 120.994 172.553 121.175C173.3 121.243 174.091 121.247 174.892 121.188L175.061 122.153C175.397 124.081 175.707 126.011 175.765 127.977C175.874 131.621 174.5 134.625 173.028 137.878C170.201 144.128 169.883 150.367 172.961 156.607C173.411 157.52 174.686 158.264 175.714 158.171C177.048 158.051 177.692 157.669 178.467 156.607C179.119 155.715 178.97 154.454 178.519 153.522L178.467 153.419C176.917 150.444 176.428 147.082 177.22 143.812C177.964 140.738 179.65 137.975 180.402 134.91C181.629 129.918 180.323 124.966 177.77 120.684C179.697 120.134 181.479 119.155 182.667 117.661L182.662 117.659V117.659C183.116 117.179 182.868 116.176 182.072 116.237L181.171 116.309C178.595 116.522 176.223 116.744 173.618 116.033C172.282 115.668 171.129 115.059 169.983 114.322L169.737 114.163C168.303 113.218 167.507 113.085 165.818 113.087ZM159.652 76.1971C153.193 75.8337 147.679 80.055 144.998 85.6743C142.087 91.775 143.308 98.775 145.878 104.777L146.609 106.457C147.887 109.368 149.565 112.829 152.182 114.391C155.122 116.145 157.664 114.111 156.797 110.877C156.28 108.951 154.882 107.465 153.75 105.876C152.694 104.391 151.709 102.855 150.845 101.252C149.153 98.1095 147.889 94.6075 147.903 91.0066C147.927 84.4341 152.312 76.9019 159.652 76.9985C160.176 77.0045 160.168 76.2258 159.652 76.1971ZM126.986 65.5887C127.388 65.2861 127.028 64.6129 126.578 64.897C119.088 69.6145 113.496 78.4758 112.37 87.1813C111.745 92.0114 112.222 97.1733 114.299 101.631C115.491 104.189 117.535 106.63 120.394 107.332C123.023 107.976 125.732 106.489 126.548 103.948C126.864 102.963 126.32 101.931 125.498 101.393C122.833 99.6481 120.687 97.4462 119.432 94.4842C118.126 91.4046 117.605 88.1365 117.589 84.8145C117.551 77.035 120.686 70.3303 126.986 65.5887ZM35.4938 68.965C35.8405 68.5845 35.4044 68.0234 34.9455 68.2617C29.5309 71.082 26.0903 76.4841 25.1045 82.4006C24.1385 88.1928 25.438 96.0784 29.9654 100.268C32.5202 102.632 37.0968 99.4873 34.973 96.4414C33.4755 94.2933 31.8567 92.5242 30.9994 89.986C30.2349 87.7213 29.9644 85.4375 30.006 83.0576C30.0968 77.8656 31.9699 72.8359 35.4938 68.965ZM101.695 61.7063C92.4437 61.2699 86.8371 71.7289 85.5528 79.5245C84.7599 84.341 85.3559 89.3018 88.0411 93.4794L88.2 93.7226C90.4156 97.0598 94.4439 100.902 98.7842 99.3219C100.621 98.6538 101.11 96.7048 99.8761 95.2263C97.9878 92.9631 95.069 92.0406 93.2934 89.624C91.3015 86.9139 90.6487 83.5186 90.764 80.2228L90.7796 79.8587C91.0883 73.7963 94.0081 62.1604 101.695 62.3664C102.126 62.3774 102.121 61.7259 101.695 61.7063ZM72.7574 59.9698C63.8092 58.8372 58.36 69.2625 56.6793 76.4443C55.6295 80.934 55.4001 85.9426 56.7427 90.3986L56.8428 90.716C57.9357 94.0417 61.1602 99.7399 65.3696 98.0404C66.5229 97.5749 67.7 96.3065 67.1477 94.9391C66.4427 93.1912 65.4249 92.7377 64.0686 91.6192C63.0239 90.7581 62.2945 89.5219 61.7574 88.3043C60.327 85.0593 60.0082 81.2683 60.2036 77.7714L60.2305 77.3576C60.7361 70.5273 64.4757 60.3482 72.7574 60.5354C73.1355 60.5439 73.1096 60.0141 72.7574 59.9698ZM56.3756 50.1687C51.3955 48.2906 47.3153 53.0065 44.4524 56.3722C40.8661 60.5895 37.6128 65.1325 35.7737 70.3824C34.1357 75.0601 33.8474 80.2612 35.323 85.0229C36.0534 87.3806 37.1915 89.5669 38.7448 91.4913L38.9431 91.7341C40.5597 93.6862 42.1204 94.8858 44.7686 94.1869C45.8463 93.9018 46.3016 92.8467 46.1153 91.8382C45.7163 89.6836 44.595 89.1241 43.1427 87.6199C41.862 86.2933 40.9118 84.6594 40.2727 82.9417C38.9549 79.398 38.8864 75.5588 39.7712 71.9081C40.7609 67.8212 42.7093 64.0472 44.9633 60.5106L45.4495 59.7531C47.8377 56.0141 51.2429 50.2562 56.2807 50.863C56.7122 50.9152 56.7178 50.2974 56.3756 50.1687Z" fill="white"/>
<path fill-rule="evenodd" clip-rule="evenodd" d="M98.4079 216.258C101.82 214.88 104.865 212.58 107.091 209.642C107.865 208.621 108.065 207.543 107.903 206.556C107.72 205.447 107.058 204.442 106.154 203.768C105.248 203.092 104.114 202.758 103.018 202.928C102.066 203.076 101.118 203.592 100.367 204.663L100.21 204.878C98.8871 206.651 97.1627 208.105 95.1978 209.043C93.304 209.947 91.1859 210.369 88.9941 210.123C84.8195 209.656 81.9423 207.42 78.884 204.384C78.505 204.001 78.1256 203.606 77.7445 203.204C77.5038 202.84 77.1697 202.606 76.7988 202.483C76.387 202.347 75.9212 202.354 75.4945 202.502C75.083 202.644 74.7151 202.913 74.4684 203.272C74.234 203.613 74.1011 204.034 74.1442 204.519C74.4241 207.665 76.0852 210.473 78.4447 212.678C81.0652 215.127 84.5389 216.822 87.8093 217.416C91.4122 218.07 95.0835 217.601 98.4079 216.258V216.258ZM86.1104 167.713C82.2772 170.02 76.4366 175.401 80.5602 181.121C85.4141 186.165 92.4026 180.382 95.8464 177.766C99.0397 175.739 102.627 180.953 99.6648 183.32C74.7798 201.566 64.6809 168.316 84.1716 165C86.3176 164.634 87.1146 166.999 86.1104 167.713ZM130.704 146.489C130.281 141.283 122.274 140.101 121.478 145.253C120.765 149.868 121.604 154.107 123.703 158.262C125.709 162.231 130.75 160.38 131.131 156.765C131.642 151.92 130.968 149.728 130.704 146.489ZM69.7585 144.188C68.6423 142.74 67.0306 141.751 65.0997 142.31C59.0667 144.056 60.8449 152.538 62.9637 156.667C64.1149 158.909 67.8362 159.478 69.5179 157.504C72.259 154.284 73.5717 147.855 70.087 144.684C69.9926 144.52 69.8875 144.355 69.7585 144.188ZM123.788 123.712L122.835 123.547C119.887 123.042 116.221 122.556 114.136 124.904C113.03 126.148 112.649 128.462 114.136 129.653C116.751 131.75 119.643 130.937 122.777 131.115C125.359 131.262 127.841 131.685 130.329 132.389C135.787 133.934 140.234 136.754 144.896 139.851C145.507 140.257 146.132 139.482 145.84 138.916C143.149 133.696 137.934 129.409 132.711 126.795C129.923 125.4 126.872 124.243 123.788 123.712ZM75.2576 121.372L74.5282 121.52C66.5906 123.163 56.2777 126.445 52.5189 134.167C52.3757 135.259 52.527 135.493 52.6501 135.646L52.691 135.696C52.7924 135.827 52.8733 136.007 53.3512 136.156C53.4838 136.124 53.6177 136.091 53.7531 136.056C55.4761 135.609 56.8393 134.993 58.159 134.354L59.59 133.655C61.2501 132.849 62.925 132.072 64.6999 131.499C68.4878 130.275 72.3839 129.413 76.3404 128.953C77.1979 128.854 78.0237 128.567 78.6752 128.076C79.2935 127.609 79.7659 126.964 79.9813 126.106C80.2605 124.995 80.1802 124.154 79.5786 123.153C79.1262 122.4 78.4789 121.879 77.7356 121.579C76.9778 121.274 76.1151 121.202 75.2576 121.372Z" fill="white"/>
</svg>
