<svg width="270" height="286" viewBox="0 0 270 286" fill="none" xmlns="http://www.w3.org/2000/svg">
<path fill-rule="evenodd" clip-rule="evenodd" d="M33.0626 72.6276C34.19 69.8099 36.1839 66.2682 39.5164 66.127C42.094 58.3223 48.5031 50.3739 57.4178 50.5851C83.5841 24.085 116.526 25.3342 150.967 30.944C169.138 34.2815 187.588 40.8168 201.14 53.7135C217.372 68.8964 223.692 95.389 210.981 114.588C221.966 120.418 222.18 134.253 217.482 144.236C223.129 148.104 223.472 157.49 217.113 160.44C217.451 161.812 217.212 163.229 216.568 164.448C219.72 167.047 223.824 168.967 227.216 170.617C228.716 171.347 229.581 172.538 229.94 173.881C241.079 181.118 268.855 198.804 268.524 212.881C268.687 220.225 263.187 225.058 256.502 226.982C260.479 234.856 263.498 244.053 259.691 252.547C258.639 255.113 250.755 262.656 250.358 262.795C249.664 263.384 238.353 258.241 232.855 255.618C231.789 262.485 224.375 266.083 217.983 263.73C211.923 261.921 208.198 256.84 204.375 252.218C199.302 263.178 184.374 263.305 174.727 258.579C166.062 254.615 159.476 247.35 155.807 238.595C136.324 248.041 113.529 250.794 92.3617 247.021C91.0034 249.402 87.9963 251.001 85.3176 250.08C74.0618 246.729 61.6167 246.541 52.0757 238.863C32.188 224.726 30.5134 198.664 31.9002 176.447C33.1301 154.296 32.0535 131.96 36.1194 110.049C34.355 103.597 31.42 97.894 28.7043 91.8333C25.754 85.478 25.816 76.0305 33.0626 72.6276Z" fill="white"/>
<path fill-rule="evenodd" clip-rule="evenodd" d="M217.963 166.652C216.791 166.36 216.162 167.92 217.157 168.547C223.473 172.526 229.999 176.079 236.101 180.409C241.904 184.524 247.265 189.213 252.264 194.253L252.818 194.815C257.337 199.419 262.342 205.277 262.393 212.069C262.432 217.348 258.322 223.111 252.587 222.417C250.427 222.156 248.441 224.87 249.195 226.827L249.988 228.89C253.179 237.238 256.425 246.696 253.905 255.478L253.812 255.791C253.203 257.802 252.56 259.579 250.203 259.539C248.016 259.501 245.74 258.77 243.692 258.073C239.443 256.626 235.592 254.212 232.324 251.177C229.433 248.492 225.739 251.22 226.128 254.632L226.142 254.741C226.674 258.569 220.516 260.347 217.716 259.799C212.187 258.717 208.246 253.231 205.106 249.049C203.597 247.04 199.931 246.248 198.606 249.049C195.978 254.596 190.562 258.743 184.227 258.917C180.936 259.007 177.779 258.079 174.991 256.359C173.854 255.656 172.836 254.821 171.903 253.874L171.672 253.635C170.291 252.186 169.338 251.415 167.575 250.469C165.837 249.536 163.589 250.692 163.6 252.727C163.614 255.362 164.394 257.114 166.229 259.025C167.747 260.608 169.551 261.998 171.448 263.108C175.259 265.338 179.79 266.593 184.227 266.448C191.221 266.219 197.896 262.766 202.224 257.397C206.642 262.629 212.123 267.436 219.245 267.307C224.577 267.21 229.546 264.462 231.927 260.203C235.288 262.498 238.976 264.292 242.922 265.464L243.274 265.566C248.86 267.176 255.288 267.816 258.883 262.325C262.259 257.169 262.511 250.029 261.737 244.135C261.046 238.871 259.411 233.871 257.533 228.94C262.879 227.359 267.028 222.386 268.454 217.025C270.61 208.918 266.427 201.056 261.255 195.033C255.638 188.489 248.567 182.955 241.444 178.111C234.339 173.28 226.38 168.741 217.963 166.652ZM35.2898 103.238C35.2766 103.013 34.9041 102.934 34.8695 103.181C32.4157 120.815 30.9949 138.414 29.8188 156.169C29.2224 165.164 28.5452 174.15 27.8041 183.134C27.0929 191.749 25.9092 200.594 26.1767 209.244C26.5955 222.789 33.2371 233.802 44.1273 241.728C54.5623 249.324 67.5074 253.079 80.2083 254.666C87.5844 255.587 95.0631 255.631 102.447 254.766C106.282 254.316 110.113 253.718 113.869 252.819L115.493 252.417C118.451 251.668 121.754 250.653 122.176 247.183C122.381 245.502 121.479 244.262 120.023 243.419C118.125 242.319 115.949 242.966 113.993 243.468C110.697 244.312 107.367 245.037 103.998 245.538C96.763 246.616 89.3255 246.68 82.0535 245.934C69.8211 244.678 56.9176 240.749 47.4862 232.634C43.3872 229.108 39.8233 224.811 37.9487 219.707C35.5386 213.144 35.8954 205.985 35.9761 199.113C36.1634 183.134 35.9985 167.156 36.2228 151.175C36.4482 135.146 36.2518 119.243 35.2898 103.238ZM158.3 28.5646C144.007 24.9139 129.501 23.9653 114.818 25.0642C100.972 26.0998 85.1993 29.1679 73.8908 37.6019C73.342 38.0111 73.6705 38.7858 74.3497 38.6787C81.91 37.4853 89.2795 35.3146 96.8074 33.8783C104.048 32.4969 111.419 31.4598 118.791 31.2195C143.726 30.4056 171.472 36.0013 191.578 51.3969C201.006 58.6154 208.201 68.3218 211.065 79.8707C214.001 91.7161 212.412 104.526 206.515 115.242C205.666 116.784 206.016 119.225 207.788 120.047C213.163 122.539 216.992 128.061 216.909 134.02C216.869 136.91 215.863 139.681 214.246 142.07C212.537 144.596 209.934 146.364 208.022 148.723C207.269 149.652 207.24 150.931 207.837 151.787C206.718 152.272 205.512 152.532 204.412 153.106C203.479 153.592 203.452 155.109 204.412 155.588C206.838 156.798 209.461 155.514 211.099 153.563C211.391 153.214 211.644 152.852 211.875 152.482C213.836 152.07 215.593 151.095 217.128 149.762C220.052 151.496 220.452 155.356 217.941 158.305C216.658 159.811 214.836 160.74 212.994 161.408L212.773 161.487C210.98 162.118 209.339 162.47 208.174 163.89C207.406 162.304 206.524 160.81 205.542 159.448C201.969 154.498 196.476 150.106 189.959 150.663C184.854 151.099 180.431 154.719 179.385 159.713C179.308 160.082 179.87 160.371 180.038 159.985C182.487 154.329 190.237 154.122 194.853 157.069C200.282 160.536 203.249 167.068 204.439 173.153C205.611 179.146 204.934 186.436 200.404 190.994C198.551 192.86 196.03 194.15 193.398 194.49C192.112 194.656 190.977 194.492 189.747 194.247L188.932 194.078C188.366 193.963 187.804 193.869 187.211 193.921L186.327 194.039V194.039L185.825 194.271C185.389 194.465 185.429 194.412 185.943 194.112C184.441 193.99 183.665 195.089 183.583 196.294C183.535 196.324 183.489 196.357 183.45 196.403C177.752 203.31 173.521 211.248 167.474 217.928L165.704 219.885C161.153 224.898 155.957 230.334 149.775 232.935L149.04 233.236C147.241 233.988 145.435 235.018 145.206 237.165C145 239.089 146.531 240.536 148.296 240.985C152.315 242.006 156.897 238.468 159.84 236.147C166.17 231.158 171.49 224.798 175.884 218.106L176.318 217.439C179.929 211.853 183.324 205.483 184.378 198.853L184.569 199.159C184.583 199.18 184.594 199.197 184.601 199.207C184.816 199.496 185.054 199.74 185.329 199.975C186.068 200.607 186.969 200.976 187.906 201.226C189.664 201.696 191.591 201.788 193.398 201.605C197.069 201.234 200.5 199.85 203.401 197.597C212.236 190.736 213.279 177.968 209.706 167.609C212.638 168.303 215.977 166.349 218.266 164.674C220.892 162.753 223.057 159.979 223.574 156.717C224.088 153.479 222.004 149.192 218.912 147.943C222.12 144.129 223.987 138.716 224.18 134.382C224.515 126.843 220.471 119.718 214.262 115.605C220.101 103.212 221.226 88.8351 217.294 75.677C209.493 49.5665 183.359 34.9652 158.3 28.5646ZM180.544 226.95L180.471 226.721C179.85 224.702 179.047 220.685 176 222.214C173.09 223.675 174.948 227.997 175.966 230.102C177.184 232.62 179.287 234.639 182.111 235.18C184.408 235.62 186.931 235.054 188.538 233.297C189.007 232.784 189.271 232.222 189.549 231.602C189.657 231.361 189.706 231.195 189.726 231.088C189.752 231.206 189.828 231.382 190.019 231.589C191.302 232.976 192.513 234.591 193.443 236.233C193.664 236.621 194.358 236.349 194.182 235.924C193.099 233.299 193.281 229.24 190.865 227.341C188.736 225.667 186.735 226.984 185.609 228.934L185.552 229.035C183.905 231.995 181.282 229.184 180.544 226.95ZM203.707 217.462L203.484 217.157C201.208 214.075 197.368 210.368 193.526 213.234C192.304 214.145 192.259 215.667 193.526 216.571L194.005 216.91C195.684 218.088 197.355 219.201 198.588 220.891C199.928 222.729 201.131 224.674 202.932 226.116C206.117 228.664 211.265 229.167 214.028 225.731L214.3 225.39C214.532 225.095 214.797 224.74 215.012 224.386L215.18 224.616C215.196 224.639 215.212 224.661 215.226 224.682L215.264 224.74C216.401 226.538 217.836 228.018 219.623 229.187C223.02 231.406 226.848 231.715 230.691 230.54C231.067 230.424 230.966 229.925 230.602 229.892C226.048 229.471 221.611 226.267 219.759 222.141L219.55 221.678C218.8 220.037 217.96 218.477 216.109 217.833C214.306 217.205 212.414 217.868 211.178 219.218C210.144 220.347 209.878 222.591 208.014 222.096C205.972 221.554 204.823 219.022 203.707 217.462ZM216.749 190.055C215.741 189.296 214.161 190.111 213.884 191.211C212.625 196.19 217.851 202.059 222.874 202.213C224.167 202.252 225.41 201.942 226.556 201.35C227.444 200.89 228.495 199.716 229.47 199.521C230.73 199.271 231.845 200.932 232.732 201.784C233.832 202.842 234.92 203.825 236.153 204.727C236.645 205.087 237.409 204.482 237.201 203.928L236.784 202.828C235.275 198.911 232.676 193.193 227.812 194.818C225.429 195.614 223.635 198.3 221.125 196.173C219.115 194.471 218.928 191.695 216.749 190.055ZM195.289 170.005C190.755 164.85 180.095 167.573 178.074 173.844C177.627 175.229 178.093 177.03 179.186 178.01C180.625 179.301 182.678 179.692 184.425 178.68C185.928 177.808 186.546 176.383 187.651 175.16C189.271 173.367 191.476 172.372 193.748 171.66C194.316 171.955 194.844 172.344 195.318 172.812C195.561 173.052 196.019 172.723 195.804 172.441C195.511 172.057 195.154 171.695 194.748 171.362L194.943 171.305V171.305C195.541 171.14 195.67 170.44 195.289 170.005ZM165.819 113.087C164.803 113.089 163.619 114.034 163.749 115.137L163.788 115.444C164.081 117.544 164.762 118.734 166.885 119.71C168.687 120.537 170.579 120.994 172.554 121.175C173.301 121.243 174.092 121.247 174.893 121.188L175.062 122.153C175.398 124.081 175.708 126.011 175.766 127.977C175.875 131.621 174.502 134.625 173.029 137.878C170.202 144.128 169.884 150.367 172.962 156.607C173.412 157.52 174.687 158.264 175.715 158.171C177.049 158.051 177.693 157.669 178.469 156.607C179.12 155.715 178.971 154.454 178.52 153.522L178.469 153.419C176.918 150.444 176.429 147.082 177.221 143.812C177.965 140.738 179.651 137.975 180.404 134.91C181.63 129.918 180.324 124.966 177.772 120.684C179.698 120.134 181.48 119.155 182.668 117.661L182.663 117.659V117.659C183.117 117.179 182.87 116.176 182.073 116.237L181.172 116.309C178.596 116.522 176.224 116.744 173.619 116.033C172.283 115.668 171.13 115.059 169.984 114.322L169.738 114.163C168.304 113.218 167.508 113.085 165.819 113.087ZM159.652 76.1971C153.193 75.8337 147.679 80.055 144.999 85.6743C142.087 91.775 143.308 98.775 145.878 104.777L146.609 106.457C147.887 109.368 149.565 112.829 152.182 114.391C155.122 116.145 157.664 114.111 156.797 110.877C156.28 108.951 154.882 107.465 153.75 105.876C152.694 104.391 151.709 102.855 150.845 101.252C149.153 98.1095 147.889 94.6075 147.903 91.0066C147.927 84.4341 152.312 76.9019 159.652 76.9985C160.177 77.0045 160.168 76.2258 159.652 76.1971ZM126.986 65.5887C127.388 65.2861 127.028 64.6129 126.578 64.897C119.088 69.6145 113.496 78.4758 112.37 87.1813C111.745 92.0114 112.222 97.1733 114.3 101.631C115.491 104.189 117.536 106.63 120.394 107.332C123.023 107.976 125.732 106.489 126.548 103.948C126.864 102.963 126.32 101.931 125.498 101.393C122.833 99.6481 120.687 97.4462 119.432 94.4842C118.126 91.4046 117.605 88.1365 117.589 84.8145C117.551 77.035 120.686 70.3303 126.986 65.5887ZM35.4929 68.965C35.8396 68.5845 35.4036 68.0234 34.9447 68.2617C29.53 71.082 26.0894 76.4841 25.1036 82.4006C24.1377 88.1928 25.4371 96.0784 29.9645 100.268C32.5193 102.632 37.0959 99.4873 34.9721 96.4414C33.4747 94.2933 31.8559 92.5242 30.9985 89.986C30.2341 87.7213 29.9635 85.4375 30.0051 83.0576C30.096 77.8656 31.9691 72.8359 35.4929 68.965ZM101.695 61.7063C92.4438 61.2699 86.8372 71.7289 85.553 79.5245C84.7601 84.341 85.356 89.3018 88.0413 93.4794L88.2001 93.7226C90.4157 97.0598 94.444 100.902 98.7843 99.3219C100.621 98.6538 101.11 96.7048 99.8762 95.2263C97.9879 92.9631 95.0691 92.0406 93.2935 89.624C91.3017 86.9139 90.6489 83.5186 90.7641 80.2228L90.7797 79.8587C91.0884 73.7963 94.0083 62.1604 101.695 62.3664C102.126 62.3774 102.121 61.7259 101.695 61.7063ZM72.7584 59.9698C63.8103 58.8372 58.3611 69.2625 56.6804 76.4443C55.6306 80.934 55.4012 85.9426 56.7438 90.3986L56.8439 90.716C57.9368 94.0417 61.1612 99.7399 65.3707 98.0404C66.524 97.5749 67.7011 96.3065 67.1488 94.9391C66.4438 93.1912 65.426 92.7377 64.0697 91.6192C63.025 90.7581 62.2956 89.5219 61.7585 88.3043C60.328 85.0593 60.0093 81.2683 60.2047 77.7714L60.2316 77.3576C60.7372 70.5273 64.4767 60.3482 72.7584 60.5354C73.1366 60.5439 73.1107 60.0141 72.7584 59.9698ZM56.3758 50.1687C51.3956 48.2906 47.3154 53.0065 44.4525 56.3722C40.8662 60.5895 37.6129 65.1325 35.7739 70.3824C34.1358 75.0601 33.8475 80.2612 35.3231 85.0229C36.0536 87.3806 37.1916 89.5669 38.7449 91.4913L38.9432 91.7341C40.5598 93.6862 42.1205 94.8858 44.7687 94.1869C45.8464 93.9018 46.3017 92.8467 46.1154 91.8382C45.7164 89.6836 44.5951 89.1241 43.1428 87.6199C41.8621 86.2933 40.9119 84.6594 40.2728 82.9417C38.9551 79.398 38.8865 75.5588 39.7713 71.9081C40.761 67.8212 42.7094 64.0472 44.9634 60.5106L45.4497 59.7531C47.8378 56.0141 51.243 50.2562 56.2808 50.863C56.7123 50.9152 56.7179 50.2974 56.3758 50.1687Z" fill="black"/>
<path fill-rule="evenodd" clip-rule="evenodd" d="M98.4085 216.258C101.821 214.88 104.865 212.58 107.091 209.642C107.865 208.621 108.066 207.543 107.904 206.556C107.721 205.447 107.058 204.442 106.155 203.768C105.249 203.092 104.115 202.758 103.019 202.928C102.066 203.076 101.118 203.592 100.368 204.663L100.211 204.878C98.8877 206.651 97.1633 208.105 95.1984 209.043C93.3046 209.947 91.1865 210.369 88.9947 210.123C84.8202 209.656 81.9429 207.42 78.8846 204.384C78.5056 204.001 78.1262 203.606 77.7451 203.204C77.5044 202.84 77.1703 202.606 76.7994 202.483C76.3877 202.347 75.9218 202.354 75.4951 202.502C75.0836 202.644 74.7157 202.913 74.4691 203.272C74.2346 203.613 74.1017 204.034 74.1448 204.519C74.4247 207.665 76.0858 210.473 78.4453 212.678C81.0658 215.127 84.5395 216.822 87.8099 217.416C91.4128 218.07 95.0841 217.601 98.4085 216.258V216.258ZM86.11 167.713C82.2768 170.02 76.4363 175.401 80.5599 181.121C85.4138 186.165 92.4022 180.382 95.846 177.766C99.0393 175.739 102.627 180.953 99.6644 183.32C74.7794 201.566 64.6805 168.316 84.1712 165C86.3172 164.634 87.1143 166.999 86.11 167.713ZM130.704 146.489C130.28 141.283 122.274 140.101 121.477 145.253C120.764 149.868 121.604 154.107 123.703 158.262C125.708 162.231 130.749 160.38 131.13 156.765C131.641 151.92 130.967 149.728 130.704 146.489ZM69.7582 144.188C68.642 142.74 67.0303 141.751 65.0993 142.31C59.0664 144.056 60.8445 152.538 62.9633 156.667C64.1146 158.909 67.8359 159.478 69.5176 157.504C72.2587 154.284 73.5714 147.855 70.0866 144.684C69.9922 144.52 69.8871 144.355 69.7582 144.188ZM123.788 123.712L122.835 123.547C119.887 123.042 116.221 122.556 114.136 124.904C113.03 126.148 112.649 128.462 114.136 129.653C116.751 131.75 119.642 130.937 122.776 131.115C125.359 131.262 127.841 131.685 130.329 132.389C135.787 133.934 140.234 136.754 144.895 139.851C145.507 140.257 146.131 139.482 145.839 138.916C143.149 133.696 137.934 129.409 132.711 126.795C129.923 125.4 126.872 124.243 123.788 123.712ZM75.2582 121.372L74.5288 121.52C66.5912 123.163 56.2783 126.445 52.5195 134.167C52.3763 135.259 52.5276 135.493 52.6507 135.646L52.6916 135.696C52.793 135.827 52.874 136.007 53.3518 136.156C53.4844 136.124 53.6183 136.091 53.7537 136.056C55.4767 135.609 56.8399 134.993 58.1596 134.354L59.5906 133.655C61.2507 132.849 62.9256 132.072 64.7005 131.499C68.4884 130.275 72.3845 129.413 76.341 128.953C77.1986 128.854 78.0243 128.567 78.6758 128.076C79.2941 127.609 79.7665 126.964 79.9819 126.106C80.2611 124.995 80.1808 124.154 79.5792 123.153C79.1268 122.4 78.4795 121.879 77.7362 121.579C76.9784 121.274 76.1157 121.202 75.2582 121.372Z" fill="black"/>
</svg>
