<svg width="760" height="891" viewBox="0 0 760 891" fill="none" xmlns="http://www.w3.org/2000/svg">
<path fill-rule="evenodd" clip-rule="evenodd" d="M18.47 501.167C29.0969 502.211 39.7238 503.253 50.3507 504.297C101.246 508.187 152.121 516.311 202.627 521.187C203.884 519.139 206.345 519.477 207.84 520.899C212.879 520.458 218.528 516.604 223.093 520.613C223.241 520.592 223.389 520.567 223.539 520.553C231.667 504.946 237.286 488.3 242.739 471.631C246.22 461.383 250.902 451.462 259.556 444.582C274.324 434.326 308.162 413.53 325.503 414.404C325.791 411.298 327.238 408.097 329.615 406.028C324.377 397.095 345.32 391.266 346.797 392.302C345.85 362.456 359.884 336.537 390.828 330.594C418.551 324.815 457.981 323.844 472.89 352.827C474.529 352.642 491.282 352.555 492.903 352.737C495.424 349.544 523.101 379.802 511.757 390.336C613.173 435.216 670.838 429.861 698.908 556.031C702.703 567.883 702.979 580.853 706.986 592.442C721.243 625.744 732.806 661.205 735.684 697.442C742.634 699.224 743.434 711.483 735.383 713.257C732.308 713.935 729.736 714.861 727.494 716.617C729.247 746.313 722.068 814.147 717.544 813.938C708.321 843.304 667.179 851.591 638.053 841.272C643.074 850.722 638.053 856.663 638.053 861.712C533.248 865.679 418.654 863.395 313.878 868.835C300.475 868.644 286.378 872.128 273.159 870.123C265.097 868.189 265.084 855.508 273.261 853.94L237.529 846.176C238.328 845.875 222.801 835.543 211.065 816.236C200.142 794.638 207.576 768.567 202.627 745.073C163.969 741.911 124.672 740.558 86.4375 734.009C81.2243 749.613 58.6571 730.951 51.4838 723.444C51.4927 723.433 51.5017 723.421 51.5106 723.409C48.0391 722.459 45.2552 719.204 45.162 715.351C42.7275 711.871 42.2164 706.966 44.5511 703.603C33.8505 641.833 17.5373 578.765 11.6409 516.414C9.55648 515.953 7.5935 515.039 5.92925 513.63L6.06411 513.495C3.24442 510.35 2.6961 504.922 7.39682 502.25C11.1887 500.093 14.3548 500.762 18.47 501.167Z" fill="white"/>
<path fill-rule="evenodd" clip-rule="evenodd" d="M470.958 346.096C467.801 338.157 457.126 341.243 458.316 349.583C459.029 354.579 461.764 359.855 464.22 364.233C466.221 367.797 468.502 371.276 471.596 373.947C466.089 379.087 460.373 384.039 454.511 388.742C448.115 393.872 441.39 398.601 434.438 402.947C428.342 406.759 421.971 410.136 416.225 414.486C410.882 418.529 406.015 423.392 403.539 429.741C400.9 436.501 402.047 443.483 403.99 450.238L404.213 451.002C406.198 457.695 409.634 465.763 404.869 472.069C402.444 475.28 398.918 477.553 395.873 480.12C393.167 482.401 390.627 484.882 388.298 487.546C383.219 493.355 379.088 499.891 376.481 507.173L376.247 507.835C374.013 514.282 372.38 522.18 375.399 528.509C376.265 530.324 379.059 529.734 379.544 527.967C380.641 523.965 380.584 519.773 381.504 515.714C382.461 511.493 384.054 507.486 386.134 503.695C390.158 496.361 395.609 490.097 402.048 484.8L403.976 483.232C409 479.108 413.615 474.733 414.635 467.907C415.726 460.604 412.801 453.647 410.92 446.735C409.61 441.919 409.182 437.301 410.598 432.948C412.328 435.773 414.689 438.455 416.556 440.847C420.275 445.613 424.029 450.349 427.773 455.095C431.612 459.961 435.356 464.904 438.921 469.974C440.516 472.243 442.094 474.525 443.667 476.809C444.849 478.526 446.498 480.241 447.787 481.992C447.474 482.929 447.498 484.008 448.066 484.775C454.901 494.014 464.626 474.736 467.162 469.866C472.327 459.947 476.171 449.409 481.353 439.492C486.722 429.212 492.837 419.206 499.651 409.821C503.774 404.144 508.394 398.812 512.165 392.955C521.048 401.013 532.738 406.415 543.476 411.314C555.273 416.696 567.53 421.092 579.626 425.761L583.199 427.149C604.04 435.286 625.391 444.226 642.714 458.679C663.071 475.663 675.114 499.335 684.079 523.849C694.4 552.069 702.938 581.051 710.897 610.015C714.971 624.834 718.835 639.72 722.468 654.654C725.67 667.811 728.324 681.099 732.03 694.121C724.514 693.855 715.941 696.766 709.524 697.606C680.277 701.436 651.424 707.541 623.811 718.111C620.401 719.417 619.414 722.824 620.156 725.586C618.189 725.031 616.224 724.468 614.257 723.916C616.412 720.612 615.383 714.707 615.214 711.045L615.204 710.794C615.03 705.915 614.5 701.031 614.157 696.161C613.504 686.878 612.654 677.663 611.523 668.433L611.234 666.125C609.953 656.083 609.005 645.982 607.607 635.958L607.442 634.81C608.112 632.246 608.893 629.712 609.712 627.19C611.896 620.471 614.977 614.146 617.678 607.638C617.997 606.872 616.906 606.432 616.396 606.892C611.822 611.008 608.189 616.23 605.27 621.692C605.219 621.434 605.175 621.176 605.122 620.918L604.789 619.278C603.967 615.278 602.968 611.07 600.516 607.827C600.255 607.482 599.738 607.41 599.491 607.827C597.144 611.8 596.881 616.832 596.52 621.354C596.112 626.468 596.06 631.648 596.133 636.777C596.273 646.8 596.979 656.851 597.542 666.858C598.094 676.692 599.178 686.401 600.575 696.138L600.84 697.964C601.523 702.598 602.082 707.29 602.983 711.893L603.237 713.146C603.719 715.429 604.015 718.647 604.974 721.321C580.312 714.44 555.612 707.715 530.866 701.109C512.98 696.334 495.076 691.63 477.179 686.897C476.235 685.194 475.059 683.604 473.591 682.182C468.756 677.498 462.348 675.408 456.471 679.014C455.994 679.308 455.953 680.057 456.471 680.341C457.597 680.956 458.726 681.588 459.834 682.246L449.087 679.334C441.055 677.156 432.927 674.435 424.705 672.917C409.563 665.442 393.277 660.03 377.325 654.683L375.446 654.047C367.278 651.261 358.83 648.143 350.391 646.598C344.214 645.468 336.962 646.832 334.478 653.163C331.333 655.237 328.374 657.673 325.518 660.07C323.454 661.802 321.475 663.643 319.463 665.436L319.092 665.761C317.447 667.189 316.143 668.146 315.739 670.419C315.531 671.593 316.277 673.18 317.724 673.024C322.153 672.55 325.754 667.414 328.758 664.348C331.078 661.977 333.417 659.526 335.535 656.921C336.77 657.594 338.462 657.473 339.248 655.984C343.324 648.264 354.488 653.614 360.665 655.444L369.513 658.064C373.937 659.376 378.36 660.695 382.774 662.036C394.908 665.722 406.982 669.847 419.226 673.233C418.13 674.437 418.281 676.58 420.362 677.395C429.946 681.157 440.46 683.103 450.417 685.684C456.704 687.315 462.986 688.956 469.267 690.606C470.344 692.352 471.118 694.326 471.444 696.624C472.643 705.075 470.331 714.825 468.08 722.998L467.74 724.218C465.89 730.789 463.166 738.844 457.499 742.993C456.116 744.005 454.354 744.71 452.578 744.869C441.484 739.156 430.391 733.444 419.291 727.743C417.235 726.687 415.335 728.117 414.874 729.817C410.96 729.175 407.055 728.162 403.498 726.955C397.522 724.924 392.856 721.052 387.254 718.374C376.413 713.194 365.343 719.557 355.638 724.395L353.401 725.495C349.048 727.607 339.994 731.666 337.905 725.888C335.885 720.298 342.271 714.324 346.396 711.808C351.312 708.809 357.036 707.204 362.593 705.867C365.765 705.103 368.977 704.48 372.207 704.025C375.872 703.509 379.657 703.586 383.185 702.397C384.938 701.808 385.208 699.022 383.185 698.561C377.754 697.325 371.271 698.674 365.604 700.052L362.641 700.782C356.931 702.184 351.165 703.944 345.964 706.74C342.182 708.774 338.19 711.864 335.582 715.646C333.318 713.541 330.499 713.612 327.563 714.393L325.97 714.836C323.338 715.566 321.205 716.068 318.645 715.562C318.303 713.699 317.956 711.835 317.584 709.97C313.935 691.645 309.934 673.39 305.518 655.232C297.902 623.913 289.089 592.937 279.154 562.278L278.157 559.214C275.865 552.201 274.021 544.561 270.327 538.119C266.833 532.027 261.235 528.518 254.584 526.66C247.036 524.552 239.105 523.448 231.405 522.024C229.688 521.707 227.966 521.405 226.246 521.093C227.699 518.469 228.784 515.491 229.76 513.205L229.932 512.809C232.03 508.022 233.915 503.15 235.736 498.252L237.097 494.569C240.384 485.701 243.777 476.979 248.398 468.686C253.262 459.957 259.715 452.821 267.759 446.915C284.16 434.872 303.929 428.729 319.836 415.859C320.488 415.332 319.652 414.43 318.991 414.764C308.25 420.163 296.654 423.834 285.482 428.229L283.278 429.099C274.448 432.601 265.48 436.413 257.837 442.083C249.316 448.405 242.604 456.257 237.56 465.594C232.589 474.797 229.409 485.099 225.901 494.929L224.963 497.549C223.548 501.477 222.087 505.393 220.413 509.215C219.083 512.25 216.603 515.714 215.475 519.18C212.391 518.645 209.307 518.108 206.219 517.592C139.339 506.422 71.7115 499.858 3.93385 497.938C1.28223 497.863 -0.0893426 500.394 0.301369 502.708C6.80578 541.185 12.5861 579.793 18.9282 618.299C21.6967 635.104 24.5203 651.898 27.4101 668.682C28.8739 677.186 30.5663 685.657 31.9527 694.173C33.072 701.051 33.8847 707.982 35.8062 714.701C37.5298 720.725 40.1748 726.533 44.5187 731.129C49.2013 736.083 55.737 738.481 62.3158 739.614C79.0167 742.489 96.147 743.664 112.983 745.579L202.621 755.781C201.312 767.692 201.214 779.418 201.815 791.467L202.157 798.045C202.437 803.336 202.772 808.635 203.532 813.872C204.484 820.44 207.488 826.003 211.912 830.909C215.975 835.415 220.91 839.259 225.711 842.943C230.695 846.768 235.844 850.46 241.703 852.826L242.463 853.128C247.604 855.135 257.246 858.244 264.272 857.108C263.354 861.711 261.576 866.661 263.152 871.216C263.883 873.331 266.647 874.386 268.341 872.586C271.697 869.019 271.959 864.308 272.754 859.655C273.581 854.813 274.294 849.953 274.927 845.082C276.152 835.663 277.105 826.158 277.396 816.66C277.695 806.905 277.58 797.137 277.055 787.393C276.784 782.39 276.449 777.389 275.815 772.417C275.544 770.297 275.267 768.175 274.951 766.06C274.835 765.288 274.707 764.521 274.57 763.755L282.615 764.663C294.952 766.041 307.294 767.285 319.718 767.478C321.189 767.5 322.321 766.83 323.061 765.854C323.849 767.138 325.221 768.057 327.187 768.05C344.537 767.985 360.694 762.31 376.474 755.621C384.428 752.248 392.259 748.597 400.225 745.254C407.66 742.133 415.609 739.906 422.865 736.39L441.932 746.395C442.072 746.887 442.251 747.353 442.442 747.742C443.683 750.277 446.131 751.652 448.63 752.688C451.03 753.684 453.515 753.994 455.936 753.742C470.396 761.322 484.859 768.896 499.333 776.451L513.809 784.001C542.652 799.024 571.381 814.294 600.405 828.964L602.542 830.04C612.567 835.069 623.332 840.167 634.457 843.97C634.655 846.788 634.53 849.527 634.294 852.509L634.237 853.159C633.906 856.682 633.194 861.097 636.02 863.606C637.49 864.91 640.115 864.916 641.115 862.949C642.929 859.382 641.3 853.758 640.726 849.883C640.522 848.505 640.273 847.088 639.906 845.714C652.66 849.513 665.8 851.354 678.78 849.221C691.416 847.146 701.203 839.183 709.093 829.441C717.42 819.162 723.338 807.182 726.513 794.34C730.126 779.727 730.362 764.636 730.277 749.668C730.187 733.729 729.597 717.711 727.659 701.879C729.783 701.379 732.137 700.948 734.283 701.097C735.346 702.798 737.407 703.514 739.27 703.293C743.321 707.762 733.046 712.33 729.762 713.473C728.622 713.871 728.744 715.723 730.059 715.667L730.888 715.628C735.961 715.358 741.203 714.491 744.186 709.774C746.576 705.994 745.858 701.515 743.009 698.432C741.127 680.629 736.627 663.294 732.439 645.927C728.33 628.882 723.76 611.946 718.916 595.096L716.744 587.554C709.117 561.132 701.145 534.498 690.624 509.126C685.371 496.458 679.319 484.022 671.116 472.976C663.469 462.679 654.441 453.868 644.063 446.342C624.718 432.312 602.017 423.834 579.713 415.757L578.715 415.396C567.157 411.213 555.627 406.98 544.2 402.449C534.094 398.441 524.413 393.36 514.355 389.292C514.681 388.698 514.997 388.098 515.301 387.492L515.487 387.648C515.518 387.673 515.551 387.698 515.585 387.721C516.596 388.422 518.085 388.078 518.919 387.291C521.273 385.069 520.476 382.603 518.905 380.299L518.7 380.006C516.779 377.313 515.065 374.466 513.291 371.675L512.181 369.93C509.204 365.269 506.076 360.576 502.107 356.723C500.268 354.937 498.256 353.602 496.124 352.606C496.306 352.221 494.708 351.432 494.254 351.829C487.499 349.356 479.727 349.874 472.363 350.556M206.959 756.275L216.351 757.343C226.683 758.519 237.02 759.656 247.358 760.783L269.813 763.224C269.87 764.504 270.026 765.757 270.054 766.724C270.201 771.71 270.31 776.698 270.413 781.685C270.621 791.682 270.393 801.689 269.735 811.667C269.098 821.335 268.258 831.005 266.953 840.608L266.686 842.528L266.531 843.537C265.466 843.64 264.419 844.146 263.549 845.186C261.65 847.455 254.773 845.249 252.087 844.294C247.67 842.721 243.511 840.065 239.673 837.401C235.925 834.8 232.55 831.767 229.307 828.572L226.653 825.947C224.014 823.323 221.371 820.527 219.754 817.226C217.561 812.75 217.277 807.256 216.634 802.381C215.843 796.385 214.9 790.389 213.903 784.423M479.605 693.331L480.579 693.587C515.967 702.994 551.302 712.679 586.799 721.67C604.365 726.121 622.015 730.248 639.603 734.613L642.45 735.325C656.325 738.833 670.367 743.055 680.992 753.123C681.384 753.494 681.954 752.924 681.584 752.531C670.133 740.336 653.847 735.173 638.21 730.698C635.319 729.871 632.425 729.063 629.534 728.24C650.8 720.656 672.402 714.058 694.503 709.352C700.194 708.14 705.951 707.25 711.638 706.033C715.604 705.184 719.477 703.957 723.401 702.939L726.487 702.163L726.528 711.921C726.58 725.743 726.555 739.554 725.85 753.373L725.717 755.933C724.894 771.313 723.611 787.012 718.155 801.513C713.722 813.297 706.656 824.398 697.415 832.982C692.739 837.324 687.712 840.705 681.497 842.374C675.728 843.924 669.682 844.105 663.751 843.692C635.3 841.706 609.975 826.245 585.261 813.444C544.838 792.507 504.41 771.579 463.946 750.722C465.04 749.974 466.07 749.112 467.007 748.143C472.433 742.537 475.295 734.863 477.175 727.43C479.176 719.519 480.373 711.04 480.512 702.873M428.118 758.806C427.761 758.614 427.347 758.854 427.33 759.258C427.205 762.35 428.913 765.399 430.189 768.184L430.324 768.481C431.875 771.932 433.572 775.335 435.328 778.686C438.837 785.379 442.483 792.002 446.289 798.53C453.943 811.664 462.448 824.245 472.5 835.68C474.771 838.264 478.505 834.952 477.048 832.17C470.023 818.762 461.833 806.101 453.402 793.551C449.182 787.268 444.965 780.978 440.702 774.723C438.924 772.113 437.124 769.512 435.274 766.95L434.159 765.419M8.41552 505.618C43.9271 506.691 79.397 509.008 114.74 512.639C147.609 516.015 180.357 520.51 212.921 526.113C219.722 527.283 226.515 528.501 233.3 529.767L237.369 530.533C244.155 531.819 252.445 532.35 258.486 535.977C264.856 539.8 266.578 547.79 268.697 554.378C271.189 562.127 273.617 569.898 275.98 577.688C285.363 608.617 293.934 639.814 301.58 671.217C305.376 686.805 308.743 702.48 312.291 718.124C315.444 732.024 318.922 745.767 322.556 759.527C322.108 759.179 321.559 758.914 320.896 758.772C302.851 754.932 284.43 753.262 266.115 751.14L264.343 750.933C245.396 748.704 226.449 746.492 207.491 744.359L81.9727 730.238C74.57 729.406 66.6397 729.293 59.4357 727.306C47.1877 723.926 44.3168 710.227 42.2618 699.318L42.1998 698.988C36.0042 666.026 31.0723 632.778 25.2942 599.734M319.635 721.211C324.508 720.889 331.178 716.424 334.875 716.745C332.934 720.003 332.058 723.718 333.177 727.687C336.29 738.729 350.368 733.016 357.149 729.642C362.709 726.875 368.078 723.489 374.233 722.193C381.207 720.726 385.931 723.5 391.822 726.698C396.661 729.324 401.931 731.21 407.35 732.186C410.232 732.705 412.969 732.76 415.701 732.558C415.865 732.692 416.051 732.816 416.262 732.927L417.707 733.686C411.172 733.985 404.516 736.003 398.435 737.85C392.133 739.763 385.946 742.069 379.792 744.428L373.738 746.756C358.805 752.477 343.348 757.909 327.187 757.861C326.025 757.858 325.073 758.18 324.324 758.705M346.9 686.611C342.086 686.022 337.642 686.653 333.795 689.788C329.156 693.569 326.039 699.839 319.37 700.251C317.425 700.37 316.973 703.106 318.906 703.678C323.871 705.148 327.89 702.461 331.273 698.972L333.547 696.595C336.889 693.133 339.972 690.456 345.644 690.663C351.718 690.885 357.803 692.289 363.838 693.003C370.674 693.811 377.509 694.501 384.367 695.096C384.685 695.123 384.74 694.621 384.441 694.548L376.76 692.635M351.547 666.92L350.753 666.84C343.763 666.161 337.369 666.135 331.126 669.897L329.928 670.621C324.299 674.044 318.172 678.077 314.652 683.618C314.076 684.526 315.027 685.593 315.991 685.362C322.757 683.737 327.703 678.771 333.392 675.055C339.778 670.884 346.374 671.572 353.654 672.22C360.704 672.847 367.749 673.71 374.729 674.885C381.288 675.988 387.867 677.731 394.492 678.286L394.491 678.273C395.248 678.271 395.679 677.134 394.908 676.749C388.184 673.39 380.398 671.801 373.084 670.266M590.932 476.75C590.941 476.197 590.163 475.99 589.892 476.469C585.343 484.475 582.965 494.288 580.542 503.108C578.004 512.347 575.955 521.68 574.115 531.082C570.387 550.12 568.401 569.048 568.266 588.451C568.248 591.221 572.759 591.959 573.2 589.12C576.13 570.246 578.938 551.353 581.89 532.484C583.375 522.994 585.104 513.54 586.758 504.078M545.901 490.693C546.236 489.589 544.63 489.219 544.219 490.229C535.091 512.645 532 538.049 537.86 561.698C538.757 565.316 544.054 563.749 543.377 560.177M428.154 470.777C428.2 469.95 427.128 469.82 426.724 470.389C422.398 476.486 420.604 484.651 413.015 487.801C409.227 489.374 404.963 489.1 401.616 491.758C399.378 493.535 397.662 496.34 399.341 499.031C399.883 499.901 401.4 500.336 402.135 499.392C403.208 498.015 403.776 496.367 405.234 495.335C407.29 493.879 410.063 493.789 412.421 493.105C415.471 492.221 418.159 490.673 420.36 488.373M355.893 369.089C355.447 368.862 355.019 369.007 354.734 369.393C354.327 369.942 354.377 370.477 354.875 370.853C354.209 372.215 353.423 375.626 353.31 376.123C352.855 378.136 352.37 380.137 351.863 382.137C350.841 386.17 349.945 390.234 348.922 394.269C347.837 398.545 346.544 402.776 345.105 406.946C345.013 407.216 344.91 407.492 344.803 407.771L344.639 408.194L344.599 408.13C344.307 407.667 343.698 407.991 343.77 408.479C343.837 408.924 343.927 409.367 344.003 409.812L343.852 410.211C342.911 412.745 342.267 415.413 343.993 417.649C344.639 418.485 345.35 418.98 346.236 419.128C347.656 423.81 349.437 428.406 351.345 432.82L351.904 434.109C354.71 440.549 357.702 446.904 362.169 452.387C367.047 458.373 373.756 462.46 378.005 469.019C379.981 472.07 381.357 475.278 382.473 478.724L382.893 480.031C383.685 482.468 384.599 484.831 386.885 486.26C387.614 486.716 388.706 486.571 389.294 485.949C393.981 480.99 389.075 471.73 386.249 466.928C382.321 460.252 376.636 455.98 370.944 450.943C364.808 445.514 360.894 438.25 357.108 431.095C354.789 426.711 352.55 422.233 350.193 417.83C352.656 415.653 353.444 411.328 354.278 408.322L354.354 408.052C355.733 403.238 356.829 398.299 357.521 393.339C358.187 388.569 358.465 383.868 358.289 379.071L358.238 377.85M346.737 391.789C347.281 391.043 346.38 390.198 345.634 390.354C341.095 391.292 336.658 394.04 332.585 396.263L332.15 396.499C328.899 398.253 325.627 400.401 323.92 403.809C322.063 407.512 322.216 411.778 322.469 415.803L322.493 416.18C322.804 421.006 322.853 426.021 323.875 430.761C324.397 433.186 326.593 433.87 328.471 433.296C330.705 440.354 336.981 445.553 341.565 451.122C347.41 458.222 346.31 467.807 345.699 476.358C345.452 479.82 349.757 480.804 351.974 478.957L357.083 474.712C357.934 474.003 358.784 473.293 359.631 472.58C360.357 471.969 361.076 471.354 361.789 470.73L362.855 469.789C363.327 469.366 365.412 467.037 366.021 466.94C367.498 466.705 371.005 470.597 372.206 471.818L372.358 471.97C374.617 474.187 376.659 476.571 378.56 479.101C378.91 479.565 379.594 479.179 379.344 478.643C377.64 474.992 375.659 471.501 373.306 468.234L372.831 467.583C371.266 465.473 369.165 461.748 366.403 461.125C363.029 460.364 359.661 463.748 357.207 465.626L357.052 465.744C355.884 466.62 354.73 467.512 353.578 468.41C353.698 462.044 352.894 455.611 349.609 450.125C347.292 446.256 343.821 443.39 340.851 440.065C337.544 436.363 335.818 431.813 332.824 427.957C332.439 427.461 331.908 427.194 331.332 427.109C331.217 424.009 330.761 420.878 330.408 417.812L330.306 416.894C329.95 413.563 329.107 409.493 330.738 406.373C332.278 403.426 335.812 401.346 338.429 399.346L340.566 397.688M494.027 356.561C495.394 357.352 496.671 358.335 497.829 359.564C501.477 363.435 504.085 368.252 506.622 372.886C507.989 375.381 509.306 377.905 510.684 380.394C511.283 381.477 511.899 382.549 512.522 383.619C512.81 384.111 513.666 385.091 514.09 385.695C513.618 386.356 513.131 387.006 512.634 387.65C512.444 387.895 499.36 402.153 494.8 407.734C487.816 416.281 481.574 425.31 476.237 434.974C471.011 444.437 467.032 454.457 462.191 464.103C459.768 468.933 457.062 473.728 453.613 477.908C453.48 478.071 453.339 478.225 453.203 478.386C451.886 474.828 448.513 471.018 446.856 468.831L446.701 468.624C442.944 463.557 438.976 458.643 434.921 453.812C431.218 449.4 427.421 445.084 423.531 440.839L422.069 439.251C419.359 436.323 415.917 431.941 411.95 429.849C412.375 429.091 412.867 428.342 413.433 427.602C417.149 422.743 422.403 419.217 427.587 416.036L430.949 413.99C443.621 406.264 456.096 398.181 467.098 388.143C472.918 382.832 478.659 377.268 483.551 371.073L485.281 368.883M472.883 352.736C478.817 353.234 485.225 353.116 490.709 355.05C485.834 359.661 481.2 364.639 476.439 369.327C476.016 366.156 475.149 363.024 474.416 359.932" fill="black"/>
<path fill-rule="evenodd" clip-rule="evenodd" d="M294.184 107.554C295.837 103.381 298.76 98.1357 303.646 97.9265C307.425 86.3681 316.822 74.5967 329.892 74.9094C368.254 35.6636 416.551 37.5137 467.045 45.8216C493.685 50.7644 520.735 60.443 540.604 79.5424C564.401 102.028 573.667 141.263 555.032 169.696C571.138 178.33 571.45 198.819 564.563 213.604C572.842 219.331 573.345 233.233 564.022 237.601C564.518 239.632 564.167 241.732 563.222 243.536C567.845 247.386 573.861 250.229 578.834 252.673C581.033 253.753 582.301 255.518 582.828 257.506C599.159 268.224 639.881 294.417 639.395 315.264C639.635 326.14 631.571 333.298 621.771 336.147C627.602 347.809 632.028 361.429 626.446 374.008C624.903 377.809 613.344 388.979 612.762 389.185C611.745 390.058 595.162 382.441 587.102 378.557C585.539 388.727 574.668 394.055 565.298 390.57C556.413 387.89 550.951 380.366 545.347 373.521C537.909 389.753 516.024 389.94 501.879 382.942C489.176 377.071 479.52 366.312 474.141 353.346C445.576 367.335 412.157 371.412 381.123 365.825C379.132 369.351 374.723 371.719 370.796 370.355C354.294 365.392 336.048 365.114 322.059 353.743C292.902 332.807 290.447 294.209 292.48 261.307C294.283 228.502 292.705 195.424 298.666 162.973C296.079 153.419 291.776 144.972 287.794 135.997C283.469 126.585 283.56 112.593 294.184 107.554Z" fill="white"/>
<path fill-rule="evenodd" clip-rule="evenodd" d="M565.27 246.799C563.552 246.367 562.629 248.677 564.087 249.605C573.348 255.498 582.915 260.761 591.861 267.173C600.37 273.268 608.23 280.211 615.558 287.676L616.371 288.507C622.996 295.326 630.334 304.001 630.409 314.06C630.466 321.879 624.44 330.413 616.033 329.386C612.865 328.999 609.954 333.019 611.059 335.917L612.222 338.972C616.9 351.334 621.659 365.341 617.964 378.348L617.828 378.812C616.935 381.79 615.992 384.422 612.537 384.362C609.33 384.306 605.993 383.224 602.991 382.191C596.761 380.048 591.116 376.473 586.324 371.978C582.085 368.002 576.67 372.042 577.24 377.094L577.261 377.256C578.041 382.926 569.012 385.559 564.907 384.748C556.802 383.144 551.023 375.02 546.42 368.827C544.207 365.851 538.833 364.679 536.889 368.827C533.037 377.042 525.097 383.183 515.809 383.44C510.984 383.574 506.355 382.2 502.269 379.652C500.601 378.612 499.109 377.375 497.741 375.973L497.402 375.619C495.377 373.472 493.98 372.331 491.395 370.929C488.848 369.548 485.552 371.26 485.568 374.273C485.589 378.176 486.732 380.771 489.422 383.601C491.648 385.946 494.293 388.003 497.073 389.648C502.661 392.951 509.304 394.809 515.809 394.594C526.063 394.254 535.85 389.142 542.194 381.191C548.672 388.939 556.707 396.057 567.149 395.866C574.966 395.723 582.251 391.652 585.742 385.345C590.669 388.743 596.077 391.401 601.863 393.136L602.378 393.288C610.568 395.673 619.992 396.62 625.263 388.487C630.212 380.852 630.581 370.278 629.447 361.55C628.434 353.753 626.036 346.349 623.283 339.046C631.121 336.705 637.205 329.34 639.295 321.4C642.456 309.394 636.323 297.751 628.741 288.83C620.505 279.14 610.139 270.944 599.695 263.77C589.279 256.616 577.61 249.893 565.27 246.799ZM297.451 152.893C297.431 152.559 296.885 152.442 296.834 152.809C293.237 178.924 291.154 204.987 289.429 231.282C288.555 244.604 287.562 257.912 286.476 271.217C285.433 283.975 283.698 297.073 284.09 309.884C284.704 329.944 294.441 346.255 310.407 357.992C325.706 369.241 344.685 374.803 363.306 377.152C374.12 378.517 385.085 378.582 395.911 377.3C401.533 376.635 407.149 375.748 412.656 374.417L415.037 373.821C419.374 372.713 424.217 371.209 424.835 366.07C425.135 363.581 423.813 361.745 421.679 360.496C418.896 358.867 415.706 359.826 412.838 360.568C408.006 361.819 403.123 362.893 398.184 363.635C387.577 365.231 376.673 365.326 366.011 364.221C348.077 362.361 329.159 356.542 315.332 344.524C309.322 339.302 304.097 332.939 301.349 325.379C297.815 315.661 298.338 305.058 298.457 294.881C298.731 271.217 298.489 247.553 298.818 223.887C299.149 200.148 298.861 176.596 297.451 152.893ZM477.798 42.3015C456.843 36.8949 435.576 35.4901 414.05 37.1176C393.75 38.6512 370.625 43.1949 354.046 55.6855C353.241 56.2915 353.723 57.4388 354.718 57.2802C365.803 55.5127 376.607 52.298 387.644 50.1709C398.259 48.125 409.066 46.5891 419.875 46.2333C456.432 45.0279 497.11 53.315 526.588 76.1154C540.411 86.8057 550.959 101.181 555.157 118.284C559.462 135.827 557.133 154.798 548.487 170.667C547.242 172.952 547.756 176.567 550.353 177.783C558.234 181.475 563.848 189.652 563.726 198.477C563.667 202.757 562.192 206.861 559.822 210.399C557.315 214.14 553.5 216.758 550.696 220.252C549.593 221.628 549.55 223.523 550.425 224.79C548.785 225.508 547.017 225.894 545.403 226.743C544.036 227.463 543.997 229.71 545.403 230.419C548.961 232.211 552.807 230.309 555.208 227.419C555.636 226.903 556.007 226.367 556.345 225.819C559.221 225.209 561.797 223.765 564.047 221.791C568.333 224.359 568.921 230.075 565.238 234.443C563.358 236.673 560.686 238.049 557.986 239.039L557.661 239.156C555.034 240.089 552.627 240.61 550.92 242.714C549.794 240.366 548.501 238.152 547.06 236.135C541.822 228.804 533.769 222.3 524.214 223.126C516.73 223.771 510.245 229.132 508.712 236.528C508.598 237.075 509.423 237.502 509.669 236.931C513.259 228.555 524.621 228.247 531.389 232.612C539.349 237.746 543.698 247.421 545.444 256.432C547.161 265.308 546.169 276.103 539.528 282.854C536.811 285.617 533.114 287.528 529.256 288.031C527.37 288.278 525.707 288.035 523.903 287.672L522.708 287.422C521.879 287.25 521.055 287.112 520.185 287.189L518.889 287.363V287.363L518.153 287.708C517.515 287.995 517.572 287.916 518.326 287.471C516.125 287.291 514.987 288.918 514.866 290.703C514.796 290.748 514.729 290.796 514.672 290.865C506.317 301.093 500.114 312.85 491.249 322.743L488.653 325.641C481.981 333.066 474.364 341.115 465.301 344.967L464.222 345.413C461.585 346.527 458.937 348.053 458.601 351.233C458.299 354.081 460.544 356.224 463.132 356.889C469.024 358.401 475.741 353.162 480.057 349.725C489.337 342.336 497.137 332.916 503.578 323.005L504.215 322.018C509.51 313.746 514.486 304.311 516.032 294.493L516.311 294.946C516.332 294.978 516.348 295.002 516.359 295.017C516.675 295.445 517.022 295.807 517.426 296.154C518.509 297.09 519.831 297.636 521.204 298.007C523.781 298.703 526.607 298.84 529.256 298.569C534.638 298.019 539.668 295.97 543.922 292.633C556.874 282.472 558.403 263.563 553.165 248.222C557.463 249.249 562.36 246.355 565.716 243.875C569.565 241.03 572.739 236.922 573.497 232.09C574.251 227.296 571.195 220.947 566.663 219.097C571.365 213.448 574.103 205.432 574.386 199.014C574.877 187.849 568.948 177.296 559.845 171.205C568.406 152.852 570.055 131.56 564.291 112.073C552.853 73.4047 514.538 51.7806 477.798 42.3015ZM510.41 336.1L510.303 335.76C509.391 332.77 508.214 326.821 503.748 329.086C499.481 331.249 502.205 337.651 503.697 340.767C505.483 344.497 508.566 347.486 512.707 348.288C516.075 348.939 519.774 348.102 522.13 345.499C522.817 344.74 523.205 343.908 523.612 342.989C523.77 342.632 523.842 342.387 523.871 342.227C523.91 342.402 524.02 342.663 524.302 342.97C526.181 345.024 527.957 347.416 529.321 349.847C529.644 350.422 530.662 350.019 530.405 349.39C528.816 345.502 529.083 339.49 525.541 336.679C522.42 334.2 519.486 336.151 517.835 339.037L517.751 339.187C515.337 343.571 511.491 339.408 510.41 336.1ZM544.368 322.053L544.042 321.6C540.704 317.036 535.075 311.546 529.442 315.791C527.651 317.14 527.584 319.393 529.442 320.733L530.145 321.235C532.606 322.98 535.056 324.628 536.863 327.131C538.827 329.852 540.591 332.733 543.231 334.868C547.901 338.642 555.448 339.387 559.501 334.298L559.899 333.793C560.238 333.357 560.627 332.831 560.943 332.306L561.189 332.647C561.213 332.681 561.236 332.714 561.256 332.744L561.313 332.831C562.978 335.493 565.082 337.686 567.703 339.416C572.683 342.703 578.295 343.16 583.929 341.42C584.481 341.249 584.333 340.51 583.799 340.461C577.123 339.837 570.618 335.092 567.902 328.982L567.595 328.296C566.497 325.866 565.265 323.556 562.55 322.601C559.908 321.672 557.133 322.654 555.321 324.653C553.806 326.325 553.416 329.647 550.683 328.915C547.689 328.112 546.004 324.362 544.368 322.053ZM563.491 281.461C562.012 280.336 559.696 281.542 559.289 283.171C557.444 290.546 565.106 299.237 572.47 299.466C574.365 299.524 576.188 299.065 577.867 298.187C579.17 297.507 580.711 295.768 582.141 295.48C583.987 295.108 585.623 297.568 586.923 298.831C588.536 300.398 590.131 301.852 591.938 303.188C592.66 303.722 593.78 302.826 593.475 302.006L592.864 300.376C590.651 294.575 586.84 286.107 579.709 288.514C576.215 289.693 573.585 293.67 569.906 290.521C566.959 287.999 566.685 283.888 563.491 281.461ZM532.026 251.771C525.378 244.137 509.751 248.169 506.787 257.457C506.132 259.508 506.816 262.174 508.417 263.626C510.527 265.538 513.537 266.117 516.098 264.617C518.302 263.327 519.207 261.216 520.828 259.404C523.204 256.75 526.436 255.277 529.766 254.221C530.599 254.659 531.374 255.234 532.069 255.928C532.425 256.283 533.097 255.796 532.781 255.378C532.352 254.809 531.829 254.274 531.232 253.78L531.519 253.696V253.696C532.396 253.452 532.585 252.414 532.026 251.771ZM488.82 167.48C487.33 167.483 485.594 168.882 485.785 170.517L485.842 170.97C486.271 174.081 487.27 175.843 490.383 177.289C493.024 178.513 495.799 179.19 498.694 179.458C499.789 179.559 500.949 179.565 502.124 179.478L502.371 180.906C502.863 183.763 503.318 186.621 503.403 189.532C503.562 194.929 501.549 199.376 499.39 204.195C495.246 213.451 494.78 222.69 499.292 231.932C499.952 233.283 501.821 234.385 503.329 234.248C505.284 234.071 506.228 233.505 507.365 231.932C508.32 230.611 508.102 228.744 507.441 227.363L507.365 227.211C505.092 222.804 504.375 217.826 505.536 212.982C506.627 208.43 509.099 204.338 510.202 199.799C512 192.406 510.085 185.073 506.343 178.731C509.168 177.917 511.78 176.467 513.523 174.255L513.515 174.252V174.252C514.181 173.541 513.818 172.055 512.65 172.145L511.329 172.251C507.552 172.567 504.075 172.896 500.255 171.842C498.297 171.302 496.607 170.401 494.926 169.31L494.566 169.073C492.462 167.675 491.296 167.477 488.82 167.48ZM479.779 112.84C470.31 112.302 462.226 118.553 458.295 126.876C454.026 135.91 455.818 146.277 459.585 155.166L460.656 157.654C462.53 161.965 464.99 167.091 468.827 169.404C473.138 172.002 476.864 168.989 475.593 164.2C474.835 161.348 472.785 159.148 471.126 156.793C469.578 154.595 468.134 152.32 466.867 149.946C464.386 145.292 462.534 140.105 462.554 134.772C462.589 125.039 469.017 113.884 479.779 114.027C480.548 114.036 480.535 112.883 479.779 112.84ZM431.887 97.1339C432.477 96.6857 431.949 95.6888 431.289 96.1095C420.308 103.096 412.109 116.219 410.459 129.112C409.542 136.265 410.242 143.91 413.287 150.511C415.034 154.299 418.032 157.915 422.223 158.954C426.077 159.907 430.048 157.706 431.244 153.943C431.708 152.483 430.91 150.956 429.705 150.159C425.798 147.575 422.652 144.314 420.812 139.927C418.897 135.366 418.134 130.526 418.111 125.607C418.054 114.085 422.65 104.156 431.887 97.1339ZM297.75 102.128C298.258 101.564 297.619 100.733 296.946 101.086C289.007 105.263 283.963 113.263 282.518 122.026C281.102 130.604 283.007 142.282 289.645 148.486C293.39 151.988 300.1 147.33 296.986 142.82C294.791 139.638 292.417 137.018 291.16 133.259C290.04 129.905 289.643 126.523 289.704 122.999C289.837 115.309 292.583 107.861 297.75 102.128ZM394.808 91.3851C381.245 90.7388 373.025 106.228 371.142 117.773C369.98 124.906 370.853 132.253 374.79 138.44L375.023 138.8C378.272 143.742 384.178 149.433 390.541 147.093C393.234 146.103 393.951 143.217 392.142 141.027C389.373 137.675 385.094 136.309 382.491 132.73C379.57 128.717 378.613 123.688 378.782 118.807L378.805 118.268C379.258 109.29 383.539 92.0576 394.808 92.3626C395.44 92.379 395.433 91.4141 394.808 91.3851ZM352.383 88.8123C339.264 87.135 331.275 102.574 328.811 113.21C327.272 119.86 326.935 127.277 328.904 133.876L329.051 134.346C330.653 139.272 335.38 147.711 341.552 145.194C343.243 144.504 344.968 142.626 344.159 140.601C343.125 138.012 341.633 137.341 339.644 135.684C338.113 134.409 337.043 132.578 336.256 130.775C334.159 125.969 333.691 120.355 333.978 115.176L334.017 114.563C334.758 104.448 340.241 89.3726 352.383 89.6499C352.937 89.6625 352.899 88.8778 352.383 88.8123ZM328.365 74.2979C321.064 71.5165 315.082 78.5006 310.884 83.4851C305.626 89.7307 300.857 96.4588 298.16 104.234C295.759 111.161 295.336 118.864 297.5 125.916C298.571 129.408 300.239 132.645 302.516 135.495L302.807 135.855C305.177 138.746 307.465 140.522 311.348 139.487C312.928 139.065 313.595 137.503 313.322 136.009C312.737 132.818 311.093 131.989 308.964 129.762C307.087 127.797 305.693 125.378 304.756 122.834C302.824 117.586 302.724 111.9 304.021 106.493C305.472 100.441 308.329 94.8514 311.633 89.6139L312.346 88.4921C315.847 82.9548 320.84 74.4275 328.226 75.3261C328.859 75.4035 328.867 74.4885 328.365 74.2979Z" fill="black"/>
<path fill-rule="evenodd" clip-rule="evenodd" d="M390.003 320.276C395.006 318.234 399.47 314.829 402.733 310.478C403.868 308.966 404.162 307.369 403.924 305.908C403.656 304.265 402.685 302.777 401.36 301.778C400.032 300.777 398.369 300.283 396.762 300.535C395.366 300.753 393.976 301.518 392.876 303.104L392.646 303.422C390.706 306.047 388.178 308.202 385.297 309.591C382.52 310.929 379.415 311.554 376.202 311.19C370.081 310.499 365.863 307.188 361.379 302.691C360.823 302.123 360.267 301.538 359.709 300.943C359.356 300.404 358.866 300.057 358.322 299.875C357.718 299.673 357.035 299.685 356.41 299.903C355.807 300.114 355.267 300.513 354.906 301.044C354.562 301.549 354.367 302.173 354.43 302.89C354.841 307.55 357.276 311.709 360.735 314.974C364.577 318.601 369.67 321.11 374.465 321.99C379.747 322.96 385.129 322.265 390.003 320.276V320.276ZM371.973 248.388C366.353 251.805 357.79 259.774 363.836 268.246C370.952 275.716 381.198 267.151 386.247 263.277C390.929 260.275 396.189 267.996 391.845 271.502C355.361 298.523 340.555 249.282 369.131 244.37C372.277 243.829 373.445 247.331 371.973 248.388ZM437.353 216.953C436.732 209.243 424.993 207.492 423.826 215.121C422.78 221.956 424.011 228.234 427.088 234.388C430.029 240.266 437.419 237.524 437.978 232.171C438.727 224.995 437.739 221.749 437.353 216.953ZM347.999 213.539C346.363 211.395 344 209.931 341.169 210.758C332.324 213.344 334.931 225.906 338.037 232.021C339.725 235.341 345.181 236.183 347.647 233.26C351.665 228.492 353.59 218.97 348.481 214.274C348.343 214.031 348.188 213.786 347.999 213.539ZM427.213 183.216L425.816 182.971C421.494 182.224 416.119 181.505 413.062 184.981C411.44 186.825 410.882 190.251 413.062 192.015C416.896 195.12 421.135 193.917 425.73 194.18C429.516 194.397 433.156 195.024 436.803 196.067C444.805 198.355 451.325 202.531 458.159 207.118C459.056 207.719 459.971 206.572 459.543 205.733C455.598 198.003 447.953 191.653 440.295 187.782C436.208 185.716 431.735 184.002 427.213 183.216ZM356.063 179.753L354.993 179.972C343.356 182.405 328.236 187.267 322.725 198.702C322.515 200.319 322.737 200.665 322.918 200.892L322.978 200.967C323.126 201.16 323.245 201.427 323.946 201.647C324.14 201.601 324.336 201.551 324.535 201.499C327.061 200.837 329.06 199.925 330.994 198.978L333.092 197.944C335.526 196.75 337.982 195.6 340.584 194.751C346.137 192.939 351.85 191.662 357.65 190.98C358.908 190.833 360.118 190.408 361.073 189.681C361.98 188.99 362.672 188.034 362.988 186.763C363.398 185.119 363.28 183.874 362.398 182.39C361.735 181.276 360.785 180.503 359.696 180.06C358.585 179.608 357.32 179.501 356.063 179.753Z" fill="black"/>
</svg>
