<svg width="273" height="290" viewBox="0 0 273 290" fill="none" xmlns="http://www.w3.org/2000/svg">
<path d="M173.325 13.2174C169.41 11.061 159.363 10.6737 143.691 14.2946C133.282 16.6993 111.807 28.4833 85.9705 42.3406C66.8143 52.6151 56.9526 73.3038 49.947 88.2475C41.1381 107.038 36.7098 128.968 37.6111 140.813C38.4806 152.24 42.6053 163.193 48.7271 178.254C61.2077 208.96 71.1623 215.143 78.1439 222.435C87.9743 232.703 97.5466 238.696 113.597 247.88C125.23 254.535 136.344 255.041 145.868 255.702C154.53 256.302 164.504 253.71 182.796 248.371C190.257 245.188 201.206 239.463 207.382 235.537C213.557 231.611 214.627 229.658 216.521 225.118" stroke="#1F242B" stroke-width="6.65538" stroke-linecap="round"/>
<path d="M179.237 16.4604C148.886 28.1052 118.386 45.4466 109.754 53.8257C98.3719 64.8746 95.9091 83.1825 95.2328 94.1513C94.5421 105.356 98.7657 119.756 101.919 132.514C106.795 152.241 110.126 161.685 123.667 187.623C132.389 204.331 146.136 209.062 154.583 213.803C167.109 220.834 177.279 218.847 186.096 219.529C194.618 219.646 201.649 222.307 205.717 224.046C207.831 224.716 210.045 224.952 212.327 225.195" stroke="#1F242B" stroke-width="6.65538" stroke-linecap="round"/>
</svg>
