<svg width="760" height="891" viewBox="0 0 760 891" fill="none" xmlns="http://www.w3.org/2000/svg">
<path fill-rule="evenodd" clip-rule="evenodd" d="M18.4691 501.167C29.096 502.211 39.723 503.253 50.3499 504.297C101.245 508.187 152.12 516.311 202.626 521.187C203.883 519.139 206.345 519.477 207.839 520.899C212.879 520.458 218.527 516.604 223.092 520.613C223.24 520.592 223.389 520.567 223.538 520.553C231.667 504.946 237.285 488.3 242.738 471.631C246.219 461.383 250.902 451.462 259.555 444.582C274.323 434.326 308.161 413.53 325.502 414.404C325.79 411.298 327.237 408.097 329.614 406.028C324.376 397.095 345.319 391.266 346.796 392.302C345.849 362.456 359.883 336.537 390.827 330.594C418.55 324.815 457.98 323.844 472.89 352.827C474.529 352.642 491.282 352.555 492.903 352.737C495.423 349.544 523.1 379.802 511.756 390.336C613.172 435.216 670.837 429.861 698.907 556.031C702.702 567.883 702.978 580.853 706.986 592.442C721.242 625.744 732.805 661.205 735.683 697.442C742.634 699.224 743.433 711.483 735.382 713.257C732.307 713.935 729.735 714.861 727.493 716.617C729.246 746.313 722.067 814.147 717.543 813.938C708.32 843.304 667.179 851.591 638.052 841.272C643.073 850.722 638.052 856.663 638.052 861.712C533.247 865.679 418.653 863.395 313.877 868.835C300.474 868.644 286.378 872.128 273.158 870.123C265.096 868.189 265.083 855.508 273.26 853.94L237.529 846.176C238.327 845.875 222.8 835.543 211.064 816.236C200.141 794.638 207.575 768.567 202.626 745.073C163.968 741.911 124.671 740.558 86.4366 734.009C81.2234 749.613 58.6562 730.951 51.483 723.444C51.4919 723.433 51.5008 723.421 51.5098 723.409C48.0382 722.46 45.2543 719.204 45.1612 715.351C42.7266 711.871 42.2156 706.966 44.5503 703.603C33.8496 641.833 17.5364 578.765 11.64 516.414C9.5556 515.953 7.59265 515.039 5.92841 513.63L6.06323 513.495C3.24359 510.35 2.69525 504.922 7.396 502.25C11.1878 500.093 14.3539 500.762 18.4691 501.167Z" fill="#1F242B"/>
<path fill-rule="evenodd" clip-rule="evenodd" d="M470.958 346.096C467.8 338.157 457.126 341.243 458.316 349.583C459.028 354.579 461.763 359.855 464.22 364.233C466.22 367.797 468.502 371.276 471.596 373.947C466.089 379.087 460.372 384.039 454.511 388.742C448.115 393.872 441.39 398.601 434.438 402.947C428.342 406.759 421.971 410.136 416.225 414.486C410.882 418.529 406.015 423.392 403.538 429.741C400.9 436.501 402.047 443.483 403.989 450.238L404.213 451.002C406.197 457.695 409.633 465.763 404.869 472.069C402.444 475.28 398.918 477.553 395.873 480.12C393.167 482.401 390.627 484.882 388.298 487.546C383.218 493.355 379.087 499.891 376.48 507.173L376.247 507.835C374.013 514.282 372.38 522.18 375.399 528.509C376.265 530.324 379.059 529.734 379.544 527.967C380.641 523.965 380.584 519.773 381.504 515.714C382.461 511.493 384.053 507.486 386.133 503.695C390.158 496.361 395.609 490.097 402.048 484.8L403.976 483.232C408.999 479.108 413.615 474.733 414.635 467.907C415.726 460.604 412.801 453.647 410.92 446.735C409.61 441.919 409.182 437.301 410.598 432.948C412.328 435.773 414.689 438.455 416.556 440.847C420.275 445.613 424.029 450.349 427.773 455.095C431.612 459.961 435.356 464.904 438.921 469.974C440.516 472.243 442.094 474.525 443.666 476.809C444.849 478.526 446.498 480.241 447.787 481.992C447.474 482.929 447.497 484.008 448.065 484.775C454.901 494.014 464.626 474.736 467.162 469.866C472.327 459.947 476.17 449.409 481.352 439.492C486.722 429.212 492.836 419.206 499.651 409.821C503.773 404.144 508.393 398.812 512.164 392.955C521.048 401.013 532.738 406.415 543.476 411.314C555.273 416.696 567.53 421.092 579.625 425.761L583.198 427.149C604.04 435.286 625.391 444.226 642.714 458.679C663.07 475.663 675.113 499.335 684.079 523.849C694.4 552.069 702.938 581.051 710.897 610.015C714.97 624.834 718.835 639.72 722.468 654.654C725.67 667.811 728.324 681.099 732.03 694.121C724.513 693.855 715.941 696.766 709.523 697.606C680.277 701.436 651.424 707.541 623.811 718.111C620.4 719.417 619.413 722.824 620.156 725.586C618.189 725.031 616.224 724.468 614.257 723.916C616.412 720.612 615.383 714.707 615.214 711.045L615.203 710.794C615.029 705.915 614.5 701.031 614.157 696.161C613.504 686.878 612.653 677.663 611.522 668.433L611.234 666.125C609.952 656.083 609.005 645.982 607.607 635.958L607.441 634.81C608.112 632.246 608.893 629.712 609.712 627.19C611.895 620.471 614.977 614.146 617.678 607.638C617.996 606.872 616.905 606.432 616.396 606.892C611.822 611.008 608.189 616.23 605.27 621.692C605.219 621.434 605.174 621.176 605.122 620.918L604.789 619.278C603.967 615.279 602.968 611.07 600.516 607.827C600.254 607.482 599.738 607.41 599.491 607.827C597.144 611.8 596.881 616.832 596.52 621.354C596.111 626.468 596.06 631.648 596.132 636.777C596.273 646.8 596.979 656.851 597.542 666.858C598.094 676.692 599.178 686.401 600.575 696.138L600.84 697.964C601.523 702.598 602.082 707.29 602.983 711.893L603.237 713.146C603.719 715.429 604.015 718.647 604.974 721.321C580.312 714.44 555.612 707.715 530.866 701.109C512.98 696.334 495.076 691.63 477.179 686.897C476.234 685.194 475.059 683.604 473.591 682.182C468.756 677.498 462.348 675.408 456.471 679.014C455.993 679.308 455.953 680.057 456.471 680.341C457.597 680.956 458.725 681.588 459.834 682.246L449.087 679.334C441.055 677.156 432.927 674.435 424.705 672.917C409.563 665.442 393.276 660.03 377.325 654.683L375.445 654.047C367.278 651.261 358.83 648.143 350.391 646.598C344.213 645.468 336.962 646.832 334.478 653.163C331.333 655.237 328.374 657.673 325.518 660.07C323.454 661.802 321.475 663.643 319.462 665.436L319.091 665.761C317.446 667.189 316.143 668.146 315.739 670.419C315.531 671.593 316.277 673.18 317.724 673.024C322.153 672.55 325.754 667.414 328.758 664.348C331.078 661.977 333.417 659.526 335.535 656.921C336.77 657.594 338.462 657.473 339.248 655.984C343.323 648.264 354.487 653.614 360.664 655.444L369.513 658.064C373.937 659.376 378.359 660.695 382.774 662.036C394.908 665.722 406.982 669.848 419.226 673.233C418.13 674.437 418.281 676.58 420.362 677.395C429.946 681.157 440.46 683.103 450.417 685.684C456.703 687.315 462.986 688.956 469.266 690.606C470.343 692.352 471.118 694.326 471.444 696.624C472.643 705.075 470.331 714.825 468.079 722.998L467.74 724.218C465.889 730.789 463.166 738.844 457.499 742.993C456.115 744.005 454.354 744.71 452.578 744.869C441.484 739.156 430.391 733.444 419.291 727.743C417.235 726.687 415.335 728.117 414.873 729.817C410.96 729.175 407.055 728.162 403.498 726.955C397.522 724.924 392.856 721.052 387.253 718.374C376.413 713.194 365.343 719.557 355.637 724.395L353.401 725.495C349.048 727.607 339.993 731.666 337.905 725.888C335.885 720.298 342.271 714.324 346.396 711.808C351.312 708.809 357.036 707.204 362.593 705.867C365.765 705.103 368.976 704.48 372.207 704.025C375.872 703.509 379.657 703.586 383.185 702.397C384.938 701.808 385.208 699.022 383.185 698.561C377.754 697.325 371.271 698.674 365.603 700.052L362.641 700.782C356.931 702.184 351.165 703.944 345.964 706.74C342.182 708.774 338.19 711.864 335.582 715.646C333.318 713.541 330.499 713.612 327.563 714.393L325.969 714.836C323.338 715.566 321.205 716.068 318.645 715.562C318.302 713.699 317.955 711.835 317.584 709.97C313.935 691.645 309.934 673.39 305.518 655.232C297.902 623.913 289.089 592.937 279.154 562.278L278.156 559.214C275.865 552.201 274.021 544.561 270.327 538.119C266.833 532.027 261.235 528.518 254.584 526.66C247.036 524.552 239.105 523.448 231.405 522.024C229.687 521.707 227.965 521.405 226.246 521.093C227.699 518.469 228.783 515.491 229.76 513.205L229.932 512.809C232.03 508.022 233.915 503.15 235.735 498.252L237.097 494.569C240.384 485.701 243.777 476.979 248.398 468.686C253.262 459.957 259.715 452.821 267.759 446.915C284.16 434.872 303.928 428.729 319.836 415.859C320.488 415.332 319.652 414.43 318.991 414.764C308.249 420.163 296.654 423.834 285.482 428.229L283.278 429.099C274.448 432.601 265.48 436.413 257.837 442.083C249.315 448.405 242.604 456.257 237.56 465.594C232.588 474.797 229.408 485.099 225.901 494.929L224.963 497.549C223.548 501.477 222.087 505.393 220.412 509.215C219.083 512.25 216.603 515.714 215.475 519.18C212.39 518.645 209.306 518.108 206.219 517.592C139.339 506.422 71.7112 499.858 3.93359 497.938C1.28198 497.863 -0.0895996 500.394 0.301147 502.708C6.80554 541.185 12.5858 579.793 18.928 618.299C21.6965 635.104 24.52 651.898 27.4098 668.682C28.8737 677.186 30.566 685.657 31.9525 694.173C33.0718 701.051 33.8845 707.982 35.806 714.701C37.5296 720.725 40.1745 726.533 44.5185 731.129C49.201 736.083 55.7368 738.481 62.3156 739.614C79.0164 742.489 96.1467 743.664 112.983 745.579L202.621 755.781C201.311 767.692 201.213 779.418 201.814 791.467L202.157 798.045C202.437 803.336 202.772 808.635 203.531 813.872C204.484 820.44 207.488 826.003 211.912 830.909C215.975 835.415 220.91 839.259 225.711 842.943C230.694 846.768 235.844 850.46 241.703 852.826L242.463 853.128C247.603 855.135 257.246 858.244 264.272 857.108C263.353 861.711 261.576 866.661 263.152 871.216C263.882 873.331 266.647 874.386 268.341 872.586C271.697 869.019 271.959 864.308 272.754 859.655C273.58 854.813 274.293 849.953 274.927 845.082C276.152 835.663 277.105 826.158 277.396 816.66C277.695 806.905 277.58 797.137 277.054 787.393C276.784 782.39 276.449 777.389 275.814 772.417C275.544 770.297 275.267 768.175 274.95 766.06C274.835 765.288 274.707 764.521 274.569 763.755L282.615 764.663C294.951 766.041 307.294 767.285 319.718 767.478C321.189 767.5 322.321 766.83 323.061 765.854C323.849 767.138 325.221 768.057 327.187 768.05C344.536 767.985 360.693 762.31 376.474 755.621C384.428 752.248 392.258 748.597 400.224 745.254C407.66 742.133 415.609 739.906 422.865 736.39L441.932 746.395C442.071 746.887 442.251 747.353 442.441 747.742C443.683 750.277 446.13 751.652 448.63 752.688C451.03 753.684 453.514 753.993 455.935 753.742C470.396 761.322 484.859 768.896 499.332 776.451L513.809 784.001C542.652 799.024 571.381 814.294 600.405 828.964L602.542 830.04C612.567 835.069 623.332 840.167 634.457 843.97C634.655 846.788 634.53 849.527 634.294 852.509L634.237 853.159C633.905 856.682 633.194 861.097 636.02 863.606C637.49 864.91 640.115 864.916 641.115 862.949C642.928 859.382 641.3 853.758 640.725 849.883C640.522 848.505 640.273 847.088 639.905 845.714C652.66 849.513 665.8 851.354 678.779 849.221C691.416 847.146 701.203 839.183 709.093 829.441C717.42 819.162 723.337 807.182 726.512 794.34C730.125 779.727 730.361 764.636 730.277 749.668C730.186 733.729 729.597 717.711 727.659 701.879C729.782 701.379 732.137 700.948 734.283 701.097C735.345 702.798 737.407 703.514 739.27 703.293C743.32 707.762 733.046 712.33 729.762 713.473C728.622 713.871 728.744 715.723 730.059 715.667L730.888 715.628C735.961 715.358 741.203 714.491 744.186 709.774C746.576 705.994 745.858 701.515 743.008 698.432C741.126 680.629 736.627 663.294 732.439 645.927C728.33 628.882 723.759 611.946 718.915 595.096L716.744 587.554C709.117 561.132 701.145 534.498 690.624 509.126C685.371 496.458 679.319 484.022 671.115 472.976C663.469 462.679 654.441 453.868 644.063 446.342C624.717 432.312 602.017 423.834 579.713 415.757L578.715 415.396C567.156 411.213 555.626 406.98 544.2 402.449C534.094 398.441 524.413 393.36 514.355 389.292C514.681 388.698 514.997 388.098 515.3 387.492L515.486 387.648C515.518 387.673 515.551 387.698 515.585 387.721C516.596 388.422 518.085 388.078 518.919 387.291C521.272 385.069 520.475 382.603 518.905 380.299L518.7 380.006C516.778 377.313 515.064 374.466 513.291 371.675L512.18 369.93C509.204 365.269 506.075 360.576 502.106 356.723C500.268 354.937 498.256 353.602 496.124 352.606C496.306 352.221 494.707 351.432 494.254 351.829C487.499 349.356 479.727 349.874 472.362 350.556M206.958 756.275L216.35 757.343C226.683 758.519 237.019 759.656 247.357 760.783L269.812 763.224C269.869 764.504 270.025 765.757 270.053 766.724C270.2 771.71 270.309 776.698 270.412 781.685C270.62 791.682 270.392 801.689 269.734 811.667C269.097 821.335 268.257 831.005 266.952 840.608L266.685 842.528L266.53 843.537C265.465 843.64 264.419 844.146 263.549 845.186C261.649 847.455 254.772 845.249 252.086 844.294C247.669 842.721 243.51 840.065 239.672 837.401C235.924 834.8 232.549 831.767 229.306 828.572L226.652 825.947C224.013 823.323 221.37 820.527 219.753 817.226C217.56 812.75 217.276 807.256 216.633 802.381C215.842 796.385 214.899 790.389 213.902 784.423M479.604 693.331L480.578 693.587C515.966 702.994 551.301 712.679 586.798 721.67C604.364 726.121 622.014 730.248 639.602 734.613L642.449 735.325C656.324 738.833 670.366 743.055 680.991 753.123C681.383 753.494 681.953 752.924 681.584 752.531C670.132 740.336 653.846 735.173 638.209 730.698C635.318 729.871 632.424 729.063 629.533 728.24C650.799 720.656 672.401 714.058 694.502 709.352C700.193 708.139 705.951 707.25 711.637 706.033C715.603 705.184 719.476 703.957 723.4 702.939L726.486 702.163L726.527 711.921C726.579 725.743 726.554 739.554 725.849 753.373L725.716 755.933C724.893 771.313 723.61 787.012 718.154 801.513C713.721 813.297 706.655 824.398 697.414 832.982C692.738 837.324 687.711 840.705 681.496 842.374C675.727 843.924 669.681 844.105 663.75 843.692C635.3 841.706 609.974 826.245 585.26 813.444C544.837 792.507 504.409 771.579 463.945 750.722C465.039 749.974 466.069 749.112 467.006 748.143C472.432 742.537 475.294 734.863 477.174 727.43C479.175 719.519 480.372 711.04 480.511 702.873M428.117 758.806C427.76 758.614 427.346 758.854 427.329 759.258C427.204 762.35 428.912 765.399 430.188 768.184L430.323 768.482C431.874 771.932 433.571 775.335 435.327 778.686C438.836 785.379 442.482 792.002 446.288 798.53C453.942 811.664 462.447 824.245 472.499 835.68C474.77 838.264 478.504 834.952 477.047 832.17C470.022 818.762 461.832 806.101 453.401 793.551C449.181 787.268 444.964 780.978 440.701 774.723C438.923 772.113 437.123 769.512 435.273 766.95L434.158 765.419M8.41516 505.618C43.9267 506.691 79.3966 509.008 114.739 512.639C147.608 516.015 180.356 520.51 212.92 526.113C219.722 527.283 226.515 528.501 233.299 529.767L237.369 530.533C244.155 531.819 252.445 532.35 258.486 535.977C264.856 539.8 266.577 547.79 268.697 554.378C271.188 562.127 273.617 569.898 275.98 577.688C285.363 608.617 293.934 639.814 301.58 671.217C305.375 686.805 308.743 702.48 312.291 718.124C315.444 732.024 318.922 745.767 322.556 759.527C322.108 759.179 321.559 758.914 320.896 758.772C302.85 754.932 284.43 753.262 266.114 751.14L264.342 750.933C245.395 748.704 226.448 746.492 207.49 744.359L81.9724 730.238C74.5696 729.406 66.6393 729.293 59.4354 727.306C47.1873 723.926 44.3164 710.227 42.2614 699.318L42.1994 698.988C36.0038 666.026 31.072 632.778 25.2939 599.734M319.635 721.211C324.508 720.889 331.177 716.424 334.875 716.745C332.934 720.003 332.058 723.718 333.176 727.687C336.289 738.729 350.368 733.016 357.149 729.642C362.709 726.875 368.078 723.489 374.233 722.193C381.206 720.726 385.931 723.5 391.822 726.698C396.661 729.324 401.93 731.21 407.35 732.186C410.231 732.705 412.969 732.76 415.701 732.558C415.865 732.692 416.05 732.816 416.262 732.927L417.707 733.686C411.172 733.985 404.516 736.003 398.434 737.85C392.132 739.763 385.945 742.069 379.792 744.428L373.738 746.756C358.805 752.477 343.347 757.909 327.186 757.861C326.025 757.858 325.073 758.18 324.323 758.705M346.9 686.611C342.086 686.022 337.642 686.653 333.795 689.788C329.156 693.569 326.039 699.839 319.369 700.251C317.425 700.37 316.973 703.106 318.906 703.678C323.87 705.148 327.89 702.461 331.272 698.972L333.546 696.595C336.889 693.133 339.972 690.456 345.644 690.663C351.718 690.885 357.803 692.289 363.837 693.003C370.674 693.811 377.509 694.501 384.367 695.096C384.685 695.123 384.739 694.621 384.441 694.548L376.76 692.635M351.547 666.92L350.753 666.84C343.762 666.161 337.368 666.135 331.125 669.897L329.927 670.621C324.298 674.044 318.171 678.077 314.651 683.618C314.075 684.526 315.027 685.593 315.99 685.362C322.756 683.737 327.702 678.771 333.391 675.055C339.777 670.884 346.373 671.572 353.653 672.22C360.703 672.847 367.748 673.71 374.728 674.885C381.287 675.988 387.866 677.731 394.491 678.286L394.49 678.273C395.247 678.271 395.678 677.134 394.907 676.749C388.183 673.39 380.397 671.801 373.083 670.266M590.932 476.75C590.941 476.197 590.163 475.99 589.891 476.469C585.343 484.475 582.965 494.288 580.542 503.108C578.004 512.347 575.955 521.68 574.115 531.082C570.387 550.12 568.401 569.048 568.266 588.451C568.247 591.221 572.759 591.959 573.2 589.12C576.13 570.246 578.937 551.353 581.889 532.484C583.375 522.994 585.104 513.54 586.758 504.078M545.901 490.693C546.236 489.589 544.63 489.219 544.219 490.229C535.091 512.645 531.999 538.049 537.86 561.698C538.757 565.316 544.053 563.749 543.377 560.177M428.154 470.777C428.2 469.95 427.128 469.82 426.723 470.389C422.398 476.486 420.604 484.651 413.015 487.801C409.226 489.374 404.963 489.1 401.615 491.758C399.377 493.535 397.661 496.34 399.341 499.031C399.883 499.901 401.399 500.337 402.135 499.392C403.208 498.015 403.776 496.367 405.234 495.335C407.29 493.879 410.063 493.789 412.42 493.105C415.47 492.221 418.158 490.673 420.36 488.373M355.892 369.089C355.447 368.862 355.019 369.007 354.734 369.393C354.326 369.942 354.376 370.477 354.875 370.853C354.209 372.215 353.422 375.626 353.31 376.123C352.854 378.136 352.37 380.137 351.863 382.137C350.841 386.17 349.945 390.234 348.921 394.269C347.836 398.545 346.543 402.776 345.105 406.946C345.012 407.216 344.91 407.492 344.803 407.771L344.639 408.194L344.599 408.13C344.306 407.667 343.698 407.991 343.77 408.479C343.837 408.924 343.927 409.367 344.003 409.812L343.852 410.211C342.911 412.745 342.267 415.413 343.993 417.649C344.639 418.485 345.35 418.98 346.235 419.128C347.655 423.81 349.437 428.406 351.344 432.82L351.903 434.109C354.709 440.549 357.702 446.904 362.169 452.387C367.047 458.373 373.756 462.46 378.004 469.019C379.981 472.07 381.356 475.278 382.473 478.724L382.892 480.031C383.685 482.468 384.599 484.831 386.884 486.26C387.614 486.716 388.706 486.571 389.294 485.949C393.98 480.99 389.074 471.73 386.249 466.928C382.321 460.252 376.636 455.98 370.943 450.943C364.807 445.514 360.893 438.25 357.108 431.095C354.789 426.711 352.55 422.233 350.193 417.83C352.655 415.653 353.444 411.328 354.278 408.322L354.354 408.052C355.733 403.238 356.828 398.299 357.521 393.339C358.187 388.569 358.465 383.868 358.288 379.071L358.237 377.85M346.736 391.789C347.28 391.043 346.38 390.198 345.633 390.354C341.095 391.292 336.658 394.04 332.585 396.263L332.15 396.499C328.898 398.253 325.627 400.401 323.92 403.809C322.063 407.512 322.216 411.778 322.469 415.803L322.493 416.18C322.803 421.006 322.853 426.021 323.874 430.761C324.397 433.186 326.593 433.87 328.47 433.296C330.705 440.354 336.98 445.553 341.565 451.122C347.41 458.222 346.31 467.807 345.699 476.358C345.452 479.82 349.756 480.804 351.973 478.957L357.083 474.712C357.933 474.003 358.783 473.293 359.631 472.58C360.356 471.969 361.076 471.354 361.789 470.73L362.854 469.789C363.327 469.366 365.412 467.037 366.021 466.94C367.497 466.705 371.005 470.597 372.205 471.818L372.357 471.97C374.617 474.187 376.658 476.571 378.56 479.101C378.909 479.565 379.593 479.179 379.343 478.643C377.639 474.992 375.658 471.501 373.306 468.234L372.831 467.583C371.266 465.473 369.165 461.748 366.402 461.125C363.029 460.364 359.661 463.748 357.207 465.626L357.051 465.744C355.883 466.62 354.729 467.512 353.577 468.41C353.698 462.044 352.894 455.611 349.608 450.125C347.292 446.256 343.821 443.39 340.85 440.065C337.544 436.363 335.817 431.813 332.824 427.957C332.439 427.461 331.907 427.194 331.332 427.109C331.217 424.009 330.761 420.878 330.408 417.812L330.306 416.894C329.949 413.563 329.107 409.493 330.737 406.373C332.278 403.426 335.812 401.346 338.429 399.346L340.565 397.688M494.028 356.561C495.394 357.352 496.671 358.335 497.83 359.564C501.477 363.435 504.085 368.252 506.623 372.886C507.989 375.381 509.306 377.905 510.684 380.394C511.283 381.477 511.899 382.549 512.522 383.619C512.81 384.111 513.666 385.091 514.09 385.695C513.619 386.356 513.131 387.006 512.634 387.65C512.445 387.895 499.361 402.153 494.8 407.734C487.816 416.281 481.574 425.31 476.237 434.974C471.011 444.437 467.033 454.457 462.192 464.103C459.768 468.933 457.062 473.728 453.613 477.908C453.48 478.071 453.339 478.225 453.203 478.386C451.887 474.828 448.513 471.018 446.856 468.831L446.702 468.624C442.944 463.557 438.976 458.643 434.921 453.812C431.218 449.4 427.421 445.084 423.532 440.839L422.069 439.251C419.359 436.323 415.917 431.941 411.951 429.849C412.376 429.091 412.867 428.342 413.433 427.602C417.15 422.743 422.403 419.217 427.587 416.036L430.949 413.99C443.622 406.264 456.097 398.181 467.098 388.143C472.919 382.832 478.659 377.268 483.551 371.073L485.281 368.883M472.882 352.736C478.817 353.234 485.225 353.116 490.709 355.05C485.834 359.661 481.199 364.639 476.439 369.327C476.015 366.156 475.149 363.024 474.415 359.932" fill="white"/>
<path fill-rule="evenodd" clip-rule="evenodd" d="M294.183 107.554C295.836 103.381 298.76 98.1357 303.645 97.9265C307.424 86.3681 316.821 74.5967 329.891 74.9094C368.253 35.6636 416.55 37.5137 467.045 45.8216C493.684 50.7644 520.734 60.443 540.603 79.5424C564.4 102.028 573.666 141.263 555.031 169.696C571.137 178.33 571.449 198.819 564.562 213.604C572.841 219.331 573.344 233.233 564.021 237.601C564.517 239.632 564.167 241.732 563.221 243.536C567.844 247.386 573.86 250.229 578.833 252.673C581.032 253.753 582.3 255.518 582.827 257.506C599.158 268.224 639.88 294.417 639.394 315.264C639.634 326.14 631.57 333.298 621.77 336.147C627.601 347.809 632.027 361.429 626.445 374.008C624.902 377.809 613.343 388.979 612.761 389.185C611.744 390.058 595.161 382.441 587.101 378.557C585.538 388.727 574.667 394.055 565.297 390.57C556.412 387.89 550.95 380.366 545.346 373.521C537.908 389.753 516.023 389.94 501.878 382.942C489.175 377.071 479.519 366.312 474.14 353.346C445.576 367.335 412.156 371.412 381.122 365.825C379.131 369.351 374.722 371.719 370.795 370.355C354.293 365.392 336.047 365.114 322.059 353.743C292.901 332.807 290.446 294.209 292.479 261.307C294.282 228.502 292.704 195.424 298.665 162.973C296.078 153.419 291.775 144.972 287.794 135.997C283.468 126.585 283.559 112.593 294.183 107.554Z" fill="#1F242B"/>
<path fill-rule="evenodd" clip-rule="evenodd" d="M565.27 246.799C563.552 246.367 562.629 248.677 564.088 249.605C573.349 255.498 582.916 260.761 591.862 267.173C600.371 273.268 608.23 280.211 615.559 287.676L616.371 288.507C622.997 295.326 630.335 304.001 630.409 314.06C630.466 321.879 624.44 330.413 616.033 329.386C612.866 328.999 609.954 333.019 611.059 335.917L612.222 338.972C616.9 351.334 621.659 365.341 617.964 378.348L617.829 378.812C616.935 381.79 615.993 384.422 612.537 384.362C609.331 384.306 605.994 383.224 602.991 382.191C596.762 380.048 591.116 376.473 586.324 371.978C582.085 368.002 576.67 372.042 577.241 377.094L577.261 377.256C578.042 382.926 569.012 385.559 564.907 384.748C556.802 383.144 551.023 375.02 546.42 368.827C544.208 365.851 538.834 364.679 536.89 368.827C533.038 377.042 525.098 383.183 515.809 383.44C510.984 383.574 506.355 382.2 502.269 379.652C500.601 378.612 499.109 377.375 497.741 375.973L497.402 375.619C495.378 373.472 493.981 372.331 491.395 370.929C488.848 369.548 485.552 371.26 485.568 374.273C485.589 378.176 486.732 380.771 489.422 383.601C491.648 385.946 494.293 388.003 497.074 389.648C502.661 392.951 509.304 394.809 515.809 394.594C526.063 394.254 535.85 389.142 542.194 381.19C548.672 388.939 556.707 396.057 567.149 395.866C574.967 395.723 582.252 391.652 585.742 385.345C590.669 388.743 596.078 391.401 601.863 393.136L602.379 393.288C610.568 395.673 619.992 396.62 625.263 388.487C630.212 380.852 630.582 370.278 629.447 361.55C628.435 353.753 626.037 346.349 623.283 339.046C631.121 336.705 637.205 329.34 639.295 321.4C642.456 309.394 636.323 297.751 628.741 288.83C620.505 279.14 610.139 270.944 599.695 263.77C589.279 256.616 577.611 249.893 565.27 246.799ZM297.451 152.893C297.432 152.559 296.885 152.442 296.835 152.809C293.237 178.924 291.154 204.987 289.43 231.282C288.555 244.604 287.563 257.912 286.476 271.217C285.433 283.975 283.698 297.073 284.09 309.884C284.704 329.944 294.441 346.255 310.408 357.992C325.706 369.241 344.685 374.803 363.306 377.152C374.12 378.517 385.085 378.582 395.911 377.3C401.534 376.634 407.149 375.748 412.656 374.417L415.038 373.821C419.375 372.713 424.217 371.209 424.835 366.07C425.135 363.581 423.814 361.745 421.679 360.496C418.897 358.867 415.706 359.826 412.839 360.568C408.007 361.819 403.123 362.893 398.184 363.635C387.577 365.231 376.673 365.326 366.011 364.221C348.077 362.361 329.16 356.542 315.332 344.524C309.323 339.302 304.097 332.939 301.349 325.379C297.816 315.661 298.339 305.058 298.457 294.881C298.732 271.217 298.49 247.553 298.819 223.887C299.149 200.148 298.861 176.596 297.451 152.893ZM477.799 42.3015C456.843 36.8949 435.576 35.4901 414.05 37.1176C393.75 38.6512 370.626 43.1949 354.046 55.6855C353.241 56.2915 353.723 57.4388 354.719 57.2802C365.803 55.5127 376.608 52.298 387.644 50.1709C398.26 48.125 409.066 46.5891 419.875 46.2333C456.432 45.0279 497.11 53.315 526.589 76.1154C540.411 86.8057 550.959 101.181 555.157 118.284C559.463 135.827 557.133 154.798 548.488 170.667C547.243 172.952 547.756 176.567 550.354 177.783C558.235 181.475 563.848 189.652 563.726 198.477C563.668 202.757 562.192 206.861 559.822 210.399C557.316 214.14 553.5 216.758 550.697 220.252C549.593 221.628 549.551 223.523 550.425 224.79C548.785 225.508 547.017 225.894 545.404 226.743C544.036 227.463 543.997 229.71 545.404 230.419C548.961 232.211 552.807 230.309 555.208 227.419C555.637 226.903 556.007 226.367 556.345 225.819C559.221 225.209 561.797 223.765 564.047 221.791C568.334 224.359 568.921 230.075 565.239 234.443C563.358 236.673 560.686 238.049 557.986 239.039L557.662 239.156C555.034 240.089 552.627 240.61 550.92 242.714C549.794 240.366 548.501 238.152 547.06 236.135C541.822 228.804 533.77 222.3 524.215 223.126C516.73 223.771 510.246 229.132 508.712 236.528C508.599 237.075 509.423 237.502 509.669 236.931C513.26 228.555 524.622 228.247 531.39 232.612C539.349 237.746 543.699 247.421 545.444 256.432C547.162 265.308 546.169 276.103 539.528 282.854C536.811 285.617 533.115 287.528 529.257 288.031C527.371 288.278 525.707 288.035 523.904 287.672L522.709 287.422C521.879 287.25 521.055 287.112 520.185 287.189L518.89 287.363L518.153 287.708C517.515 287.995 517.573 287.916 518.326 287.471C516.125 287.291 514.987 288.918 514.867 290.703C514.797 290.748 514.729 290.796 514.672 290.865C506.318 301.093 500.115 312.85 491.249 322.743L488.654 325.641C481.982 333.066 474.365 341.115 465.301 344.967L464.222 345.413C461.585 346.527 458.937 348.053 458.601 351.233C458.3 354.081 460.544 356.224 463.132 356.889C469.025 358.401 475.742 353.162 480.057 349.725C489.338 342.336 497.137 332.916 503.578 323.005L504.215 322.018C509.51 313.746 514.486 304.311 516.033 294.493L516.312 294.946C516.332 294.978 516.349 295.002 516.359 295.017C516.675 295.445 517.023 295.807 517.426 296.154C518.509 297.09 519.831 297.636 521.204 298.007C523.781 298.703 526.607 298.84 529.257 298.569C534.638 298.019 539.668 295.97 543.922 292.633C556.874 282.472 558.404 263.563 553.165 248.222C557.464 249.249 562.36 246.355 565.716 243.875C569.565 241.03 572.739 236.922 573.498 232.09C574.251 227.296 571.195 220.947 566.663 219.097C571.366 213.448 574.104 205.432 574.386 199.014C574.878 187.849 568.948 177.296 559.845 171.205C568.406 152.852 570.055 131.56 564.291 112.073C552.853 73.4047 514.538 51.7806 477.799 42.3015ZM510.41 336.1L510.303 335.76C509.392 332.77 508.214 326.821 503.748 329.086C499.482 331.249 502.205 337.651 503.698 340.767C505.483 344.497 508.566 347.486 512.707 348.288C516.075 348.939 519.774 348.102 522.13 345.499C522.817 344.74 523.205 343.908 523.612 342.989C523.77 342.632 523.842 342.387 523.872 342.227C523.91 342.402 524.021 342.663 524.302 342.97C526.182 345.024 527.957 347.416 529.322 349.847C529.645 350.422 530.663 350.019 530.405 349.39C528.816 345.502 529.083 339.491 525.542 336.678C522.42 334.2 519.487 336.151 517.836 339.037L517.751 339.187C515.338 343.571 511.492 339.408 510.41 336.1ZM544.369 322.053L544.043 321.6C540.705 317.036 535.076 311.546 529.443 315.791C527.652 317.14 527.585 319.393 529.443 320.733L530.146 321.235C532.606 322.98 535.057 324.628 536.864 327.131C538.828 329.852 540.592 332.733 543.232 334.868C547.902 338.642 555.449 339.387 559.502 334.298L559.9 333.793C560.239 333.357 560.628 332.831 560.944 332.306L561.19 332.647C561.214 332.681 561.236 332.714 561.257 332.744L561.314 332.831C562.979 335.493 565.083 337.686 567.704 339.416C572.684 342.703 578.296 343.16 583.93 341.42C584.482 341.249 584.334 340.51 583.8 340.461C577.124 339.837 570.619 335.092 567.903 328.982L567.596 328.296C566.497 325.866 565.266 323.556 562.551 322.601C559.909 321.672 557.134 322.654 555.322 324.653C553.807 326.325 553.417 329.647 550.683 328.915C547.69 328.112 546.005 324.362 544.369 322.053ZM563.491 281.461C562.012 280.336 559.696 281.542 559.289 283.171C557.444 290.546 565.107 299.237 572.47 299.466C574.365 299.524 576.189 299.065 577.868 298.187C579.17 297.507 580.711 295.768 582.141 295.479C583.987 295.108 585.623 297.568 586.923 298.831C588.536 300.398 590.131 301.852 591.938 303.188C592.66 303.722 593.78 302.826 593.475 302.006L592.864 300.376C590.652 294.575 586.841 286.107 579.71 288.514C576.215 289.693 573.585 293.67 569.906 290.521C566.96 287.999 566.685 283.888 563.491 281.461ZM532.026 251.771C525.378 244.137 509.75 248.169 506.787 257.457C506.132 259.508 506.815 262.174 508.417 263.626C510.527 265.538 513.536 266.117 516.098 264.617C518.302 263.327 519.207 261.216 520.827 259.404C523.204 256.75 526.436 255.277 529.766 254.221C530.599 254.659 531.374 255.234 532.069 255.928C532.424 256.283 533.096 255.796 532.781 255.378C532.352 254.809 531.828 254.274 531.232 253.78L531.519 253.696C532.395 253.452 532.585 252.414 532.026 251.771ZM488.819 167.48C487.329 167.483 485.594 168.882 485.784 170.517L485.842 170.97C486.271 174.081 487.27 175.843 490.383 177.289C493.024 178.513 495.799 179.19 498.693 179.458C499.789 179.559 500.948 179.565 502.124 179.478L502.371 180.906C502.863 183.763 503.317 186.621 503.403 189.532C503.562 194.929 501.549 199.376 499.39 204.195C495.246 213.451 494.78 222.69 499.292 231.932C499.952 233.283 501.821 234.385 503.328 234.248C505.283 234.071 506.228 233.505 507.365 231.932C508.32 230.611 508.102 228.744 507.44 227.363L507.365 227.211C505.091 222.805 504.375 217.826 505.536 212.982C506.627 208.43 509.098 204.338 510.202 199.799C512 192.406 510.085 185.073 506.343 178.731C509.168 177.917 511.78 176.467 513.523 174.255L513.515 174.252C514.181 173.541 513.817 172.055 512.65 172.145L511.329 172.251C507.552 172.567 504.075 172.896 500.255 171.842C498.297 171.302 496.606 170.401 494.926 169.31L494.565 169.073C492.462 167.675 491.296 167.477 488.819 167.48ZM479.779 112.84C470.31 112.302 462.225 118.553 458.295 126.876C454.026 135.91 455.817 146.277 459.585 155.166L460.656 157.654C462.53 161.965 464.99 167.091 468.827 169.404C473.138 172.002 476.864 168.989 475.593 164.2C474.835 161.348 472.785 159.148 471.126 156.793C469.578 154.595 468.134 152.32 466.867 149.946C464.386 145.292 462.533 140.105 462.553 134.772C462.588 125.039 469.017 113.884 479.779 114.027C480.548 114.036 480.535 112.883 479.779 112.84ZM431.887 97.1339C432.477 96.6857 431.949 95.6888 431.289 96.1095C420.309 103.096 412.11 116.219 410.459 129.112C409.543 136.265 410.242 143.91 413.288 150.511C415.034 154.299 418.032 157.915 422.223 158.954C426.077 159.907 430.049 157.706 431.245 153.943C431.708 152.483 430.911 150.956 429.706 150.159C425.799 147.575 422.653 144.314 420.812 139.927C418.897 135.366 418.134 130.526 418.111 125.607C418.054 114.085 422.651 104.156 431.887 97.1339ZM297.75 102.128C298.258 101.564 297.619 100.733 296.946 101.086C289.008 105.263 283.964 113.263 282.518 122.026C281.102 130.604 283.007 142.282 289.645 148.486C293.39 151.988 300.1 147.33 296.986 142.82C294.791 139.638 292.418 137.018 291.161 133.259C290.04 129.905 289.643 126.523 289.704 122.999C289.838 115.309 292.584 107.861 297.75 102.128ZM394.808 91.3851C381.245 90.7388 373.025 106.228 371.142 117.773C369.98 124.906 370.853 132.253 374.79 138.44L375.023 138.8C378.271 143.742 384.177 149.433 390.541 147.093C393.234 146.103 393.951 143.217 392.141 141.027C389.373 137.675 385.094 136.309 382.49 132.73C379.57 128.717 378.613 123.688 378.782 118.807L378.805 118.268C379.258 109.29 383.538 92.0576 394.808 92.3626C395.44 92.379 395.432 91.4141 394.808 91.3851ZM352.383 88.8123C339.264 87.135 331.275 102.574 328.811 113.21C327.272 119.86 326.936 127.277 328.904 133.876L329.051 134.346C330.653 139.272 335.381 147.711 341.552 145.194C343.243 144.504 344.969 142.626 344.159 140.601C343.125 138.012 341.633 137.341 339.645 135.684C338.113 134.409 337.044 132.578 336.256 130.775C334.159 125.969 333.692 120.355 333.978 115.176L334.018 114.563C334.759 104.448 340.241 89.3726 352.383 89.6499C352.938 89.6625 352.9 88.8778 352.383 88.8123ZM328.365 74.2979C321.063 71.5165 315.081 78.5006 310.884 83.4851C305.626 89.7307 300.857 96.4588 298.16 104.234C295.759 111.161 295.336 118.864 297.499 125.916C298.57 129.408 300.239 132.645 302.516 135.495L302.807 135.855C305.177 138.746 307.465 140.522 311.348 139.487C312.928 139.065 313.595 137.503 313.322 136.009C312.737 132.818 311.093 131.99 308.964 129.762C307.086 127.797 305.693 125.378 304.756 122.834C302.824 117.586 302.724 111.9 304.021 106.493C305.472 100.441 308.328 94.8514 311.633 89.6139L312.346 88.4921C315.847 82.9548 320.84 74.4275 328.226 75.3261C328.858 75.4035 328.866 74.4885 328.365 74.2979Z" fill="white"/>
<path fill-rule="evenodd" clip-rule="evenodd" d="M390.004 320.276C395.007 318.234 399.471 314.829 402.734 310.478C403.869 308.966 404.163 307.369 403.925 305.908C403.657 304.265 402.686 302.777 401.361 301.778C400.032 300.777 398.37 300.283 396.763 300.535C395.367 300.753 393.977 301.518 392.877 303.104L392.647 303.422C390.707 306.047 388.178 308.202 385.298 309.591C382.521 310.929 379.416 311.554 376.202 311.19C370.082 310.499 365.864 307.188 361.38 302.691C360.824 302.123 360.268 301.538 359.709 300.943C359.356 300.404 358.867 300.057 358.323 299.875C357.719 299.673 357.036 299.685 356.411 299.903C355.807 300.114 355.268 300.513 354.906 301.044C354.563 301.549 354.368 302.173 354.431 302.89C354.841 307.55 357.277 311.709 360.736 314.974C364.578 318.601 369.671 321.11 374.465 321.99C379.748 322.96 385.13 322.265 390.004 320.276ZM371.973 248.388C366.353 251.805 357.79 259.774 363.836 268.246C370.952 275.716 381.198 267.151 386.247 263.277C390.929 260.275 396.189 267.996 391.845 271.502C355.361 298.523 340.555 249.282 369.131 244.37C372.277 243.829 373.446 247.331 371.973 248.388ZM437.353 216.953C436.732 209.243 424.994 207.492 423.827 215.121C422.781 221.956 424.012 228.234 427.089 234.388C430.03 240.266 437.42 237.524 437.979 232.171C438.728 224.995 437.74 221.749 437.353 216.953ZM348.001 213.539C346.364 211.395 344.001 209.931 341.17 210.758C332.325 213.344 334.932 225.906 338.039 232.021C339.727 235.341 345.182 236.183 347.648 233.26C351.667 228.492 353.591 218.97 348.482 214.274C348.344 214.031 348.19 213.786 348.001 213.539ZM427.214 183.216L425.817 182.971C421.494 182.224 416.12 181.505 413.063 184.981C411.441 186.825 410.883 190.251 413.063 192.015C416.897 195.12 421.136 193.917 425.731 194.18C429.517 194.397 433.156 195.024 436.804 196.067C444.805 198.355 451.325 202.531 458.16 207.118C459.056 207.719 459.972 206.572 459.544 205.733C455.599 198.003 447.953 191.653 440.296 187.782C436.208 185.716 431.736 184.002 427.214 183.216ZM356.064 179.753L354.994 179.972C343.357 182.405 328.237 187.267 322.726 198.702C322.516 200.319 322.738 200.665 322.918 200.892L322.978 200.967C323.127 201.16 323.246 201.427 323.946 201.647C324.141 201.601 324.337 201.551 324.536 201.499C327.062 200.837 329.06 199.925 330.995 198.978L333.093 197.944C335.527 196.75 337.983 195.6 340.585 194.751C346.138 192.939 351.85 191.662 357.651 190.98C358.908 190.833 360.119 190.408 361.074 189.681C361.981 188.99 362.673 188.034 362.989 186.763C363.398 185.119 363.281 183.874 362.399 182.39C361.735 181.276 360.786 180.503 359.696 180.06C358.586 179.608 357.321 179.501 356.064 179.753Z" fill="white"/>
</svg>
