<svg width="289" height="296" viewBox="0 0 289 296" fill="none" xmlns="http://www.w3.org/2000/svg">
<path d="M161.589 86.9644C144.632 86.9644 110.324 88.5037 97.1108 96.2588C83.7941 104.075 80.7493 123.442 80.3412 141.705C79.8966 161.595 98.5685 184.083 110.615 196.153C116.92 202.47 124.248 204.351 130.44 205.518C148.822 208.979 163.081 196.631 183.279 183.034C188.159 179.749 191.069 176.433 193.04 173.308C204.358 155.361 193.495 124.329 187.653 113.052C182.607 103.312 173.297 95.5474 163.186 90.0897C160.073 89.2967 156.224 89.2967 152.702 89.6815C149.18 90.0664 146.102 90.8361 142.93 93.9614" stroke="white" stroke-width="5.71585" stroke-linecap="round"/>
<path d="M142.938 3V47.3146" stroke="white" stroke-width="5.71585" stroke-linecap="round"/>
<path d="M138.28 245.564V292.211" stroke="white" stroke-width="5.71585" stroke-linecap="round"/>
<path d="M243.228 140.608H285.21" stroke="white" stroke-width="5.71585" stroke-linecap="round"/>
<path d="M3 149.938H49.647" stroke="white" stroke-width="5.71585" stroke-linecap="round"/>
<path d="M79.9664 56.6443C79.9664 55.1049 75.3484 49.6939 66.812 41.5423C62.8936 38.0088 59.8149 35.6998 57.0744 33.7406C54.3339 31.7814 52.0249 30.2421 44.9812 26.3237" stroke="white" stroke-width="5.71585" stroke-linecap="round"/>
<path d="M208.238 86.9644C223.632 74.6496 237.719 65.2269 248.203 60.1774C252.529 58.2065 254.838 57.4368 257.567 55.501C260.296 53.5651 263.375 50.4864 266.547 47.3145" stroke="white" stroke-width="5.71585" stroke-linecap="round"/>
<path d="M89.2979 217.577C76.9831 226.813 62.9424 236.958 50.1261 245.891C45.0066 249.437 42.6976 250.976 40.3536 252.539C38.0096 254.101 35.7005 255.641 33.3215 257.227" stroke="white" stroke-width="5.71585" stroke-linecap="round"/>
<path d="M210.583 217.577C212.122 219.116 222.151 224.527 237.3 232.294C245.521 236.982 250.979 240.107 256.414 243.594C258.769 245.542 260.309 247.851 264.227 250.23" stroke="white" stroke-width="5.71585" stroke-linecap="round"/>
</svg>
